<?xml version="1.0" encoding="UTF-8" standalone="no"?><svg xmlns="http://www.w3.org/2000/svg" xmlns:xlink="http://www.w3.org/1999/xlink" contentStyleType="text/css" height="1529px" preserveAspectRatio="none" style="width:1250px;height:1529px;background:#FFFFFF;" version="1.1" viewBox="0 0 1250 1529" width="1250px" zoomAndPan="magnify"><defs/><g><rect fill="none" height="340.5938" style="stroke:#000000;stroke-width:1.5;" width="1055" x="10" y="566.6875"/><rect fill="none" height="88.3984" style="stroke:#000000;stroke-width:1.5;" width="456.5" x="20" y="736.4844"/><rect fill="none" height="61.3984" style="stroke:#000000;stroke-width:1.5;" width="456.5" x="20" y="838.8828"/><rect fill="none" height="510.2578" style="stroke:#000000;stroke-width:1.5;" width="1065" x="10" y="921.2813"/><rect fill="none" height="217.9297" style="stroke:#000000;stroke-width:1.5;" width="663.5" x="401.5" y="1016.6797"/><rect fill="none" height="175.9297" style="stroke:#000000;stroke-width:1.5;" width="610" x="20" y="1248.6094"/><line style="stroke:#181818;stroke-width:0.5;stroke-dasharray:5.0,5.0;" x1="53" x2="53" y1="81.2969" y2="1448.5391"/><line style="stroke:#181818;stroke-width:0.5;stroke-dasharray:5.0,5.0;" x1="438.5" x2="438.5" y1="81.2969" y2="1448.5391"/><line style="stroke:#181818;stroke-width:0.5;stroke-dasharray:5.0,5.0;" x1="780.5" x2="780.5" y1="81.2969" y2="1448.5391"/><line style="stroke:#181818;stroke-width:0.5;stroke-dasharray:5.0,5.0;" x1="839.5" x2="839.5" y1="81.2969" y2="1448.5391"/><line style="stroke:#181818;stroke-width:0.5;stroke-dasharray:5.0,5.0;" x1="1028" x2="1028" y1="81.2969" y2="1448.5391"/><line style="stroke:#181818;stroke-width:0.5;stroke-dasharray:5.0,5.0;" x1="1221" x2="1221" y1="81.2969" y2="1448.5391"/><rect fill="#E2E2F0" height="30.2969" rx="2.5" ry="2.5" style="stroke:#181818;stroke-width:0.5;" width="46" x="30" y="50"/><text fill="#000000" font-family="sans-serif" font-size="14" lengthAdjust="spacing" textLength="32" x="37" y="69.9951">Main</text><rect fill="#E2E2F0" height="30.2969" rx="2.5" ry="2.5" style="stroke:#181818;stroke-width:0.5;" width="46" x="30" y="1447.5391"/><text fill="#000000" font-family="sans-serif" font-size="14" lengthAdjust="spacing" textLength="32" x="37" y="1467.5342">Main</text><rect fill="#E2E2F0" height="30.2969" rx="2.5" ry="2.5" style="stroke:#181818;stroke-width:0.5;" width="55" x="411.5" y="50"/><text fill="#000000" font-family="sans-serif" font-size="14" lengthAdjust="spacing" textLength="41" x="418.5" y="69.9951">Game</text><rect fill="#E2E2F0" height="30.2969" rx="2.5" ry="2.5" style="stroke:#181818;stroke-width:0.5;" width="55" x="411.5" y="1447.5391"/><text fill="#000000" font-family="sans-serif" font-size="14" lengthAdjust="spacing" textLength="41" x="418.5" y="1467.5342">Game</text><text fill="#000000" font-family="sans-serif" font-size="14" lengthAdjust="spacing" textLength="45" x="755.5" y="77.9951">Dealer</text><ellipse cx="781" cy="13.5" fill="#E2E2F0" rx="8" ry="8" style="stroke:#181818;stroke-width:0.5;"/><path d="M781,21.5 L781,48.5 M768,29.5 L794,29.5 M781,48.5 L768,63.5 M781,48.5 L794,63.5 " fill="none" style="stroke:#181818;stroke-width:0.5;"/><text fill="#000000" font-family="sans-serif" font-size="14" lengthAdjust="spacing" textLength="45" x="755.5" y="1460.5342">Dealer</text><ellipse cx="781" cy="1472.3359" fill="#E2E2F0" rx="8" ry="8" style="stroke:#181818;stroke-width:0.5;"/><path d="M781,1480.3359 L781,1507.3359 M768,1488.3359 L794,1488.3359 M781,1507.3359 L768,1522.3359 M781,1507.3359 L794,1522.3359 " fill="none" style="stroke:#181818;stroke-width:0.5;"/><text fill="#000000" font-family="sans-serif" font-size="14" lengthAdjust="spacing" textLength="41" x="816.5" y="77.9951">Player</text><ellipse cx="840" cy="13.5" fill="#E2E2F0" rx="8" ry="8" style="stroke:#181818;stroke-width:0.5;"/><path d="M840,21.5 L840,48.5 M827,29.5 L853,29.5 M840,48.5 L827,63.5 M840,48.5 L853,63.5 " fill="none" style="stroke:#181818;stroke-width:0.5;"/><text fill="#000000" font-family="sans-serif" font-size="14" lengthAdjust="spacing" textLength="41" x="816.5" y="1460.5342">Player</text><ellipse cx="840" cy="1472.3359" fill="#E2E2F0" rx="8" ry="8" style="stroke:#181818;stroke-width:0.5;"/><path d="M840,1480.3359 L840,1507.3359 M827,1488.3359 L853,1488.3359 M840,1507.3359 L827,1522.3359 M840,1507.3359 L853,1522.3359 " fill="none" style="stroke:#181818;stroke-width:0.5;"/><rect fill="#E2E2F0" height="30.2969" style="stroke:#181818;stroke-width:0.5;" width="50" x="1005" y="46"/><rect fill="#E2E2F0" height="30.2969" style="stroke:#181818;stroke-width:0.5;" width="50" x="1001" y="50"/><text fill="#000000" font-family="sans-serif" font-size="14" lengthAdjust="spacing" textLength="36" x="1008" y="69.9951">Deck</text><rect fill="#E2E2F0" height="30.2969" style="stroke:#181818;stroke-width:0.5;" width="50" x="1005" y="1447.5391"/><rect fill="#E2E2F0" height="30.2969" style="stroke:#181818;stroke-width:0.5;" width="50" x="1001" y="1451.5391"/><text fill="#000000" font-family="sans-serif" font-size="14" lengthAdjust="spacing" textLength="36" x="1008" y="1471.5342">Deck</text><rect fill="#E2E2F0" height="30.2969" rx="2.5" ry="2.5" style="stroke:#181818;stroke-width:0.5;" width="46" x="1198" y="50"/><text fill="#000000" font-family="sans-serif" font-size="14" lengthAdjust="spacing" textLength="32" x="1205" y="69.9951">Card</text><rect fill="#E2E2F0" height="30.2969" rx="2.5" ry="2.5" style="stroke:#181818;stroke-width:0.5;" width="46" x="1198" y="1447.5391"/><text fill="#000000" font-family="sans-serif" font-size="14" lengthAdjust="spacing" textLength="32" x="1205" y="1467.5342">Card</text><polygon fill="#181818" points="427,108.4297,437,112.4297,427,116.4297,431,112.4297" style="stroke:#181818;stroke-width:1.0;"/><line style="stroke:#181818;stroke-width:1.0;" x1="53" x2="433" y1="112.4297" y2="112.4297"/><text fill="#000000" font-family="sans-serif" font-size="13" lengthAdjust="spacing" textLength="182" x="60" y="107.3638">ブラックジャックを開始します</text><polygon fill="#181818" points="1016,137.5625,1026,141.5625,1016,145.5625,1020,141.5625" style="stroke:#181818;stroke-width:1.0;"/><line style="stroke:#181818;stroke-width:1.0;" x1="439" x2="1022" y1="141.5625" y2="141.5625"/><text fill="#000000" font-family="sans-serif" font-size="13" lengthAdjust="spacing" textLength="78" x="446" y="136.4966">デッキを取得</text><polygon fill="#181818" points="1209,166.6953,1219,170.6953,1209,174.6953,1213,170.6953" style="stroke:#181818;stroke-width:1.0;"/><line style="stroke:#181818;stroke-width:1.0;" x1="1028" x2="1215" y1="170.6953" y2="170.6953"/><text fill="#000000" font-family="sans-serif" font-size="13" lengthAdjust="spacing" textLength="78" x="1035" y="165.6294">カードを取得</text><polygon fill="#181818" points="1039,195.8281,1029,199.8281,1039,203.8281,1035,199.8281" style="stroke:#181818;stroke-width:1.0;"/><line style="stroke:#181818;stroke-width:1.0;" x1="1033" x2="1220" y1="199.8281" y2="199.8281"/><text fill="#000000" font-family="sans-serif" font-size="13" lengthAdjust="spacing" textLength="169" x="1045" y="194.7622">カードをシャッフルして返却</text><polygon fill="#181818" points="450,224.9609,440,228.9609,450,232.9609,446,228.9609" style="stroke:#181818;stroke-width:1.0;"/><line style="stroke:#181818;stroke-width:1.0;" x1="444" x2="1027" y1="228.9609" y2="228.9609"/><text fill="#000000" font-family="sans-serif" font-size="13" lengthAdjust="spacing" textLength="78" x="456" y="223.895">デッキを返却</text><polygon fill="#181818" points="769,254.0938,779,258.0938,769,262.0938,773,258.0938" style="stroke:#181818;stroke-width:1.0;"/><line style="stroke:#181818;stroke-width:1.0;" x1="439" x2="775" y1="258.0938" y2="258.0938"/><text fill="#000000" font-family="sans-serif" font-size="13" lengthAdjust="spacing" textLength="104" x="446" y="253.0278">ディーラーを取得</text><polygon fill="#181818" points="1016,283.2266,1026,287.2266,1016,291.2266,1020,287.2266" style="stroke:#181818;stroke-width:1.0;"/><line style="stroke:#181818;stroke-width:1.0;" x1="781" x2="1022" y1="287.2266" y2="287.2266"/><text fill="#000000" font-family="sans-serif" font-size="13" lengthAdjust="spacing" textLength="164" x="788" y="282.1606">デッキから2枚カードを取得</text><polygon fill="#181818" points="792,312.3594,782,316.3594,792,320.3594,788,316.3594" style="stroke:#181818;stroke-width:1.0;"/><line style="stroke:#181818;stroke-width:1.0;" x1="786" x2="1027" y1="316.3594" y2="316.3594"/><text fill="#000000" font-family="sans-serif" font-size="13" lengthAdjust="spacing" textLength="164" x="798" y="311.2935">デッキから2枚カードを返却</text><polygon fill="#181818" points="450,341.4922,440,345.4922,450,349.4922,446,345.4922" style="stroke:#181818;stroke-width:1.0;"/><line style="stroke:#181818;stroke-width:1.0;" x1="444" x2="780" y1="345.4922" y2="345.4922"/><text fill="#000000" font-family="sans-serif" font-size="13" lengthAdjust="spacing" textLength="104" x="456" y="340.4263">ディーラーを返却</text><polygon fill="#181818" points="828,370.625,838,374.625,828,378.625,832,374.625" style="stroke:#181818;stroke-width:1.0;"/><line style="stroke:#181818;stroke-width:1.0;" x1="439" x2="834" y1="374.625" y2="374.625"/><text fill="#000000" font-family="sans-serif" font-size="13" lengthAdjust="spacing" textLength="104" x="446" y="369.5591">プレイヤーを取得</text><polygon fill="#181818" points="1016,399.7578,1026,403.7578,1016,407.7578,1020,403.7578" style="stroke:#181818;stroke-width:1.0;"/><line style="stroke:#181818;stroke-width:1.0;" x1="840" x2="1022" y1="403.7578" y2="403.7578"/><text fill="#000000" font-family="sans-serif" font-size="13" lengthAdjust="spacing" textLength="164" x="847" y="398.6919">デッキから2枚カードを取得</text><polygon fill="#181818" points="851,428.8906,841,432.8906,851,436.8906,847,432.8906" style="stroke:#181818;stroke-width:1.0;"/><line style="stroke:#181818;stroke-width:1.0;" x1="845" x2="1027" y1="432.8906" y2="432.8906"/><text fill="#000000" font-family="sans-serif" font-size="13" lengthAdjust="spacing" textLength="164" x="857" y="427.8247">デッキから2枚カードを返却</text><polygon fill="#181818" points="450,458.0234,440,462.0234,450,466.0234,446,462.0234" style="stroke:#181818;stroke-width:1.0;"/><line style="stroke:#181818;stroke-width:1.0;" x1="444" x2="839" y1="462.0234" y2="462.0234"/><text fill="#000000" font-family="sans-serif" font-size="13" lengthAdjust="spacing" textLength="104" x="456" y="456.9575">プレイヤーを返却</text><polygon fill="#181818" points="64,547.6875,54,551.6875,64,555.6875,60,551.6875" style="stroke:#181818;stroke-width:1.0;"/><line style="stroke:#181818;stroke-width:1.0;" x1="58" x2="438" y1="551.6875" y2="551.6875"/><text fill="#000000" font-family="sans-serif" font-size="13" lengthAdjust="spacing" textLength="242" x="70" y="486.0903">あなたの引いたカードはハートの7です。</text><text fill="#000000" font-family="sans-serif" font-size="13" lengthAdjust="spacing" textLength="242" x="70" y="501.2231">あなたの引いたカードはクラブの8です。</text><text fill="#000000" font-family="sans-serif" font-size="13" lengthAdjust="spacing" textLength="270" x="70" y="516.356">ディーラーの引いたカードはダイヤのQです。</text><text fill="#000000" font-family="sans-serif" font-size="13" lengthAdjust="spacing" textLength="307" x="70" y="531.4888">ディーラーの引いた2枚目のカードはわかりません。</text><text fill="#000000" font-family="sans-serif" font-size="13" lengthAdjust="spacing" textLength="362" x="70" y="546.6216">あなたの現在の得点は15です。カードを引きますか？（Y/N）</text><path d="M10,566.6875 L104,566.6875 L104,573.8203 L94,583.8203 L10,583.8203 L10,566.6875 " fill="#EEEEEE" style="stroke:#000000;stroke-width:1.5;"/><rect fill="none" height="340.5938" style="stroke:#000000;stroke-width:1.5;" width="1055" x="10" y="566.6875"/><text fill="#000000" font-family="sans-serif" font-size="13" font-weight="bold" lengthAdjust="spacing" textLength="49" x="25" y="579.7544">Yの場合</text><polygon fill="#181818" points="427,600.9531,437,604.9531,427,608.9531,431,604.9531" style="stroke:#181818;stroke-width:1.0;"/><line style="stroke:#181818;stroke-width:1.0;" x1="53" x2="433" y1="604.9531" y2="604.9531"/><text fill="#000000" font-family="sans-serif" font-size="13" lengthAdjust="spacing" textLength="46" x="60" y="599.8872">Yを入力</text><polygon fill="#181818" points="828,630.0859,838,634.0859,828,638.0859,832,634.0859" style="stroke:#181818;stroke-width:1.0;"/><line style="stroke:#181818;stroke-width:1.0;" x1="439" x2="834" y1="634.0859" y2="634.0859"/><text fill="#000000" font-family="sans-serif" font-size="13" lengthAdjust="spacing" textLength="104" x="446" y="629.02">プレイヤーを取得</text><polygon fill="#181818" points="1016,659.2188,1026,663.2188,1016,667.2188,1020,663.2188" style="stroke:#181818;stroke-width:1.0;"/><line style="stroke:#181818;stroke-width:1.0;" x1="840" x2="1022" y1="663.2188" y2="663.2188"/><text fill="#000000" font-family="sans-serif" font-size="13" lengthAdjust="spacing" textLength="164" x="847" y="658.1528">デッキから1枚カードを取得</text><polygon fill="#181818" points="851,688.3516,841,692.3516,851,696.3516,847,692.3516" style="stroke:#181818;stroke-width:1.0;"/><line style="stroke:#181818;stroke-width:1.0;" x1="845" x2="1027" y1="692.3516" y2="692.3516"/><text fill="#000000" font-family="sans-serif" font-size="13" lengthAdjust="spacing" textLength="164" x="857" y="687.2856">デッキから1枚カードを返却</text><polygon fill="#181818" points="450,717.4844,440,721.4844,450,725.4844,446,721.4844" style="stroke:#181818;stroke-width:1.0;"/><line style="stroke:#181818;stroke-width:1.0;" x1="444" x2="839" y1="721.4844" y2="721.4844"/><text fill="#000000" font-family="sans-serif" font-size="13" lengthAdjust="spacing" textLength="104" x="456" y="716.4185">プレイヤーを返却</text><path d="M20,736.4844 L239,736.4844 L239,743.6172 L229,753.6172 L20,753.6172 L20,736.4844 " fill="#EEEEEE" style="stroke:#000000;stroke-width:1.5;"/><rect fill="none" height="88.3984" style="stroke:#000000;stroke-width:1.5;" width="456.5" x="20" y="736.4844"/><text fill="#000000" font-family="sans-serif" font-size="13" font-weight="bold" lengthAdjust="spacing" textLength="174" x="35" y="749.5513">プレイヤーの合計が21より上</text><polygon fill="#181818" points="64,770.75,54,774.75,64,778.75,60,774.75" style="stroke:#181818;stroke-width:1.0;"/><line style="stroke:#181818;stroke-width:1.0;" x1="58" x2="438" y1="774.75" y2="774.75"/><text fill="#000000" font-family="sans-serif" font-size="13" lengthAdjust="spacing" textLength="117" x="70" y="769.6841">あなたの負けです！</text><line style="stroke:#181818;stroke-width:1.0;" x1="53" x2="95" y1="803.8828" y2="803.8828"/><line style="stroke:#181818;stroke-width:1.0;" x1="95" x2="95" y1="803.8828" y2="816.8828"/><line style="stroke:#181818;stroke-width:1.0;" x1="54" x2="95" y1="816.8828" y2="816.8828"/><polygon fill="#181818" points="64,812.8828,54,816.8828,64,820.8828,60,816.8828" style="stroke:#181818;stroke-width:1.0;"/><text fill="#000000" font-family="sans-serif" font-size="13" lengthAdjust="spacing" textLength="182" x="60" y="798.8169">ブラックジャックを終了します</text><path d="M20,838.8828 L226,838.8828 L226,846.0156 L216,856.0156 L20,856.0156 L20,838.8828 " fill="#EEEEEE" style="stroke:#000000;stroke-width:1.5;"/><rect fill="none" height="61.3984" style="stroke:#000000;stroke-width:1.5;" width="456.5" x="20" y="838.8828"/><text fill="#000000" font-family="sans-serif" font-size="13" font-weight="bold" lengthAdjust="spacing" textLength="161" x="35" y="851.9497">プレイヤーの合計が21以下</text><polygon fill="#181818" points="64,888.2813,54,892.2813,64,896.2813,60,892.2813" style="stroke:#181818;stroke-width:1.0;"/><line style="stroke:#181818;stroke-width:1.0;" x1="58" x2="438" y1="892.2813" y2="892.2813"/><text fill="#000000" font-family="sans-serif" font-size="13" lengthAdjust="spacing" textLength="260" x="70" y="872.0825">あなたの引いたカードはスペードの５です。</text><text fill="#000000" font-family="sans-serif" font-size="13" lengthAdjust="spacing" textLength="362" x="70" y="887.2153">あなたの現在の得点は20です。カードを引きますか？（Y/N）</text><path d="M10,921.2813 L105,921.2813 L105,928.4141 L95,938.4141 L10,938.4141 L10,921.2813 " fill="#EEEEEE" style="stroke:#000000;stroke-width:1.5;"/><rect fill="none" height="510.2578" style="stroke:#000000;stroke-width:1.5;" width="1065" x="10" y="921.2813"/><text fill="#000000" font-family="sans-serif" font-size="13" font-weight="bold" lengthAdjust="spacing" textLength="50" x="25" y="934.3481">Nの場合</text><polygon fill="#181818" points="427,955.5469,437,959.5469,427,963.5469,431,959.5469" style="stroke:#181818;stroke-width:1.0;"/><line style="stroke:#181818;stroke-width:1.0;" x1="53" x2="433" y1="959.5469" y2="959.5469"/><text fill="#000000" font-family="sans-serif" font-size="13" lengthAdjust="spacing" textLength="49" x="60" y="954.481">Nを入力</text><line style="stroke:#181818;stroke-width:1.0;" x1="439" x2="481" y1="988.6797" y2="988.6797"/><line style="stroke:#181818;stroke-width:1.0;" x1="481" x2="481" y1="988.6797" y2="1001.6797"/><line style="stroke:#181818;stroke-width:1.0;" x1="440" x2="481" y1="1001.6797" y2="1001.6797"/><polygon fill="#181818" points="450,997.6797,440,1001.6797,450,1005.6797,446,1001.6797" style="stroke:#181818;stroke-width:1.0;"/><text fill="#000000" font-family="sans-serif" font-size="13" lengthAdjust="spacing" textLength="328" x="446" y="983.6138">ディーラーの引いた2枚目のカードはダイヤの2でした。</text><path d="M401.5,1016.6797 L478.5,1016.6797 L478.5,1023.8125 L468.5,1033.8125 L401.5,1033.8125 L401.5,1016.6797 " fill="#EEEEEE" style="stroke:#000000;stroke-width:1.5;"/><rect fill="none" height="217.9297" style="stroke:#000000;stroke-width:1.5;" width="663.5" x="401.5" y="1016.6797"/><text fill="#000000" font-family="sans-serif" font-size="13" font-weight="bold" lengthAdjust="spacing" textLength="32" x="416.5" y="1029.7466">loop</text><text fill="#000000" font-family="sans-serif" font-size="11" font-weight="bold" lengthAdjust="spacing" textLength="158" x="493.5" y="1028.8901">[ディーラーの合計が17より下]</text><line style="stroke:#181818;stroke-width:1.0;" x1="439" x2="481" y1="1054.9453" y2="1054.9453"/><line style="stroke:#181818;stroke-width:1.0;" x1="481" x2="481" y1="1054.9453" y2="1067.9453"/><line style="stroke:#181818;stroke-width:1.0;" x1="440" x2="481" y1="1067.9453" y2="1067.9453"/><polygon fill="#181818" points="450,1063.9453,440,1067.9453,450,1071.9453,446,1067.9453" style="stroke:#181818;stroke-width:1.0;"/><text fill="#000000" font-family="sans-serif" font-size="13" lengthAdjust="spacing" textLength="211" x="446" y="1049.8794">ディーラーの現在の得点は12です。</text><polygon fill="#181818" points="769,1093.0781,779,1097.0781,769,1101.0781,773,1097.0781" style="stroke:#181818;stroke-width:1.0;"/><line style="stroke:#181818;stroke-width:1.0;" x1="439" x2="775" y1="1097.0781" y2="1097.0781"/><text fill="#000000" font-family="sans-serif" font-size="13" lengthAdjust="spacing" textLength="104" x="446" y="1092.0122">ディーラーを取得</text><polygon fill="#181818" points="1016,1122.2109,1026,1126.2109,1016,1130.2109,1020,1126.2109" style="stroke:#181818;stroke-width:1.0;"/><line style="stroke:#181818;stroke-width:1.0;" x1="781" x2="1022" y1="1126.2109" y2="1126.2109"/><text fill="#000000" font-family="sans-serif" font-size="13" lengthAdjust="spacing" textLength="164" x="788" y="1121.145">デッキから1枚カードを取得</text><polygon fill="#181818" points="792,1151.3438,782,1155.3438,792,1159.3438,788,1155.3438" style="stroke:#181818;stroke-width:1.0;"/><line style="stroke:#181818;stroke-width:1.0;" x1="786" x2="1027" y1="1155.3438" y2="1155.3438"/><text fill="#000000" font-family="sans-serif" font-size="13" lengthAdjust="spacing" textLength="164" x="798" y="1150.2778">デッキから1枚カードを返却</text><polygon fill="#181818" points="450,1180.4766,440,1184.4766,450,1188.4766,446,1184.4766" style="stroke:#181818;stroke-width:1.0;"/><line style="stroke:#181818;stroke-width:1.0;" x1="444" x2="780" y1="1184.4766" y2="1184.4766"/><text fill="#000000" font-family="sans-serif" font-size="13" lengthAdjust="spacing" textLength="104" x="456" y="1179.4106">ディーラーを返却</text><line style="stroke:#181818;stroke-width:1.0;" x1="439" x2="481" y1="1213.6094" y2="1213.6094"/><line style="stroke:#181818;stroke-width:1.0;" x1="481" x2="481" y1="1213.6094" y2="1226.6094"/><line style="stroke:#181818;stroke-width:1.0;" x1="440" x2="481" y1="1226.6094" y2="1226.6094"/><polygon fill="#181818" points="450,1222.6094,440,1226.6094,450,1230.6094,446,1226.6094" style="stroke:#181818;stroke-width:1.0;"/><text fill="#000000" font-family="sans-serif" font-size="13" lengthAdjust="spacing" textLength="268" x="446" y="1208.5435">ディーラーの引いたカードはハートのKです。</text><path d="M20,1248.6094 L226,1248.6094 L226,1255.7422 L216,1265.7422 L20,1265.7422 L20,1248.6094 " fill="#EEEEEE" style="stroke:#000000;stroke-width:1.5;"/><rect fill="none" height="175.9297" style="stroke:#000000;stroke-width:1.5;" width="610" x="20" y="1248.6094"/><text fill="#000000" font-family="sans-serif" font-size="13" font-weight="bold" lengthAdjust="spacing" textLength="161" x="35" y="1261.6763">ディーラーの合計が17以上</text><line style="stroke:#181818;stroke-width:1.0;" x1="439" x2="481" y1="1302.0078" y2="1302.0078"/><line style="stroke:#181818;stroke-width:1.0;" x1="481" x2="481" y1="1302.0078" y2="1315.0078"/><line style="stroke:#181818;stroke-width:1.0;" x1="440" x2="481" y1="1315.0078" y2="1315.0078"/><polygon fill="#181818" points="450,1311.0078,440,1315.0078,450,1319.0078,446,1315.0078" style="stroke:#181818;stroke-width:1.0;"/><text fill="#000000" font-family="sans-serif" font-size="13" lengthAdjust="spacing" textLength="146" x="446" y="1281.8091">あなたの得点は20です。</text><text fill="#000000" font-family="sans-serif" font-size="13" lengthAdjust="spacing" textLength="172" x="446" y="1296.9419">ディーラーの得点は22です。</text><polygon fill="#181818" points="64,1370.4063,54,1374.4063,64,1378.4063,60,1374.4063" style="stroke:#181818;stroke-width:1.0;"/><line style="stroke:#181818;stroke-width:1.0;" x1="58" x2="438" y1="1374.4063" y2="1374.4063"/><text fill="#000000" font-family="sans-serif" font-size="13" lengthAdjust="spacing" textLength="117" x="70" y="1339.0747">あなたの勝ちです！</text><text fill="#000000" font-family="sans-serif" font-size="13" lengthAdjust="spacing" textLength="13" x="70" y="1354.2075">or</text><text fill="#000000" font-family="sans-serif" font-size="13" lengthAdjust="spacing" textLength="143" x="70" y="1369.3403">ディーラーの勝ちです！</text><line style="stroke:#181818;stroke-width:1.0;" x1="53" x2="95" y1="1403.5391" y2="1403.5391"/><line style="stroke:#181818;stroke-width:1.0;" x1="95" x2="95" y1="1403.5391" y2="1416.5391"/><line style="stroke:#181818;stroke-width:1.0;" x1="54" x2="95" y1="1416.5391" y2="1416.5391"/><polygon fill="#181818" points="64,1412.5391,54,1416.5391,64,1420.5391,60,1416.5391" style="stroke:#181818;stroke-width:1.0;"/><text fill="#000000" font-family="sans-serif" font-size="13" lengthAdjust="spacing" textLength="182" x="60" y="1398.4731">ブラックジャックを終了します</text><!--MD5=[c56fd60da155809e850164c4710f708b]
@startuml Blackjack
participant        Main        as Main
participant        Game        as Game
actor       Dealer       as Dealer
actor       Player    as Me
collections Deck as Deck
participant        Card        as Card
Main -> Game : ブラックジャックを開始します
Game -> Deck: デッキを取得
Deck -> Card: カードを取得
Card -> Deck: カードをシャッフルして返却
Deck -> Game: デッキを返却
Game -> Dealer: ディーラーを取得
Dealer -> Deck: デッキから2枚カードを取得
Deck -> Dealer: デッキから2枚カードを返却
Dealer -> Game: ディーラーを返却
Game -> Me: プレイヤーを取得
Me -> Deck: デッキから2枚カードを取得
Deck -> Me: デッキから2枚カードを返却
Me -> Game: プレイヤーを返却
Game -> Main : あなたの引いたカードはハートの7です。\nあなたの引いたカードはクラブの8です。\nディーラーの引いたカードはダイヤのQです。\nディーラーの引いた2枚目のカードはわかりません。\nあなたの現在の得点は15です。カードを引きますか？（Y/N）
group Yの場合
Main -> Game : Yを入力
Game -> Me: プレイヤーを取得
Me -> Deck: デッキから1枚カードを取得
Deck -> Me: デッキから1枚カードを返却
Me -> Game: プレイヤーを返却
  group プレイヤーの合計が21より上
  Game -> Main : あなたの負けです！
  Main -> Main : ブラックジャックを終了します
  end
  group プレイヤーの合計が21以下
  Game -> Main : あなたの引いたカードはスペードの５です。\nあなたの現在の得点は20です。カードを引きますか？（Y/N）
  end
end
group Nの場合
Main -> Game : Nを入力
Game -> Game : ディーラーの引いた2枚目のカードはダイヤの2でした。
  loop ディーラーの合計が17より下
  Game -> Game : ディーラーの現在の得点は12です。
  Game -> Dealer: ディーラーを取得
  Dealer -> Deck: デッキから1枚カードを取得
  Deck -> Dealer: デッキから1枚カードを返却
  Dealer -> Game: ディーラーを返却
  Game -> Game : ディーラーの引いたカードはハートのKです。
  end
  group ディーラーの合計が17以上
  Game -> Game : あなたの得点は20です。\nディーラーの得点は22です。
  Game -> Main : あなたの勝ちです！\nor\nディーラーの勝ちです！
  Main -> Main : ブラックジャックを終了します
  end
end
@enduml

PlantUML version 1.2022.7(Tue Aug 23 02:01:30 JST 2022)
(GPL source distribution)
Java Runtime: OpenJDK Runtime Environment
JVM: OpenJDK 64-Bit Server VM
Default Encoding: UTF-8
Language: en
Country: null
--></g></svg>