<?xml version="1.0" encoding="UTF-8" standalone="no"?><svg xmlns="http://www.w3.org/2000/svg" xmlns:xlink="http://www.w3.org/1999/xlink" contentStyleType="text/css" height="1529px" preserveAspectRatio="none" style="width:889px;height:1529px;background:#FFFFFF;" version="1.1" viewBox="0 0 889 1529" width="889px" zoomAndPan="magnify"><defs/><g><rect fill="none" height="340.5938" style="stroke:#000000;stroke-width:1.5;" width="759" x="10" y="566.6875"/><rect fill="none" height="88.3984" style="stroke:#000000;stroke-width:1.5;" width="334.5" x="20" y="736.4844"/><rect fill="none" height="61.3984" style="stroke:#000000;stroke-width:1.5;" width="334.5" x="20" y="838.8828"/><rect fill="none" height="510.2578" style="stroke:#000000;stroke-width:1.5;" width="769" x="10" y="921.2813"/><rect fill="none" height="217.9297" style="stroke:#000000;stroke-width:1.5;" width="489.5" x="279.5" y="1016.6797"/><rect fill="none" height="175.9297" style="stroke:#000000;stroke-width:1.5;" width="431" x="20" y="1248.6094"/><line style="stroke:#181818;stroke-width:0.5;stroke-dasharray:5.0,5.0;" x1="53" x2="53" y1="81.2969" y2="1448.5391"/><line style="stroke:#181818;stroke-width:0.5;stroke-dasharray:5.0,5.0;" x1="316.5" x2="316.5" y1="81.2969" y2="1448.5391"/><line style="stroke:#181818;stroke-width:0.5;stroke-dasharray:5.0,5.0;" x1="544.5" x2="544.5" y1="81.2969" y2="1448.5391"/><line style="stroke:#181818;stroke-width:0.5;stroke-dasharray:5.0,5.0;" x1="603.5" x2="603.5" y1="81.2969" y2="1448.5391"/><line style="stroke:#181818;stroke-width:0.5;stroke-dasharray:5.0,5.0;" x1="732" x2="732" y1="81.2969" y2="1448.5391"/><line style="stroke:#181818;stroke-width:0.5;stroke-dasharray:5.0,5.0;" x1="860" x2="860" y1="81.2969" y2="1448.5391"/><rect fill="#E2E2F0" height="30.2969" rx="2.5" ry="2.5" style="stroke:#181818;stroke-width:0.5;" width="46" x="30" y="50"/><text fill="#000000" font-family="sans-serif" font-size="14" lengthAdjust="spacing" textLength="32" x="37" y="69.9951">Main</text><rect fill="#E2E2F0" height="30.2969" rx="2.5" ry="2.5" style="stroke:#181818;stroke-width:0.5;" width="46" x="30" y="1447.5391"/><text fill="#000000" font-family="sans-serif" font-size="14" lengthAdjust="spacing" textLength="32" x="37" y="1467.5342">Main</text><rect fill="#E2E2F0" height="30.2969" rx="2.5" ry="2.5" style="stroke:#181818;stroke-width:0.5;" width="55" x="289.5" y="50"/><text fill="#000000" font-family="sans-serif" font-size="14" lengthAdjust="spacing" textLength="41" x="296.5" y="69.9951">Game</text><rect fill="#E2E2F0" height="30.2969" rx="2.5" ry="2.5" style="stroke:#181818;stroke-width:0.5;" width="55" x="289.5" y="1447.5391"/><text fill="#000000" font-family="sans-serif" font-size="14" lengthAdjust="spacing" textLength="41" x="296.5" y="1467.5342">Game</text><text fill="#000000" font-family="sans-serif" font-size="14" lengthAdjust="spacing" textLength="45" x="519.5" y="77.9951">Dealer</text><ellipse cx="545" cy="13.5" fill="#E2E2F0" rx="8" ry="8" style="stroke:#181818;stroke-width:0.5;"/><path d="M545,21.5 L545,48.5 M532,29.5 L558,29.5 M545,48.5 L532,63.5 M545,48.5 L558,63.5 " fill="none" style="stroke:#181818;stroke-width:0.5;"/><text fill="#000000" font-family="sans-serif" font-size="14" lengthAdjust="spacing" textLength="45" x="519.5" y="1460.5342">Dealer</text><ellipse cx="545" cy="1472.3359" fill="#E2E2F0" rx="8" ry="8" style="stroke:#181818;stroke-width:0.5;"/><path d="M545,1480.3359 L545,1507.3359 M532,1488.3359 L558,1488.3359 M545,1507.3359 L532,1522.3359 M545,1507.3359 L558,1522.3359 " fill="none" style="stroke:#181818;stroke-width:0.5;"/><text fill="#000000" font-family="sans-serif" font-size="14" lengthAdjust="spacing" textLength="41" x="580.5" y="77.9951">Player</text><ellipse cx="604" cy="13.5" fill="#E2E2F0" rx="8" ry="8" style="stroke:#181818;stroke-width:0.5;"/><path d="M604,21.5 L604,48.5 M591,29.5 L617,29.5 M604,48.5 L591,63.5 M604,48.5 L617,63.5 " fill="none" style="stroke:#181818;stroke-width:0.5;"/><text fill="#000000" font-family="sans-serif" font-size="14" lengthAdjust="spacing" textLength="41" x="580.5" y="1460.5342">Player</text><ellipse cx="604" cy="1472.3359" fill="#E2E2F0" rx="8" ry="8" style="stroke:#181818;stroke-width:0.5;"/><path d="M604,1480.3359 L604,1507.3359 M591,1488.3359 L617,1488.3359 M604,1507.3359 L591,1522.3359 M604,1507.3359 L617,1522.3359 " fill="none" style="stroke:#181818;stroke-width:0.5;"/><rect fill="#E2E2F0" height="30.2969" style="stroke:#181818;stroke-width:0.5;" width="50" x="709" y="46"/><rect fill="#E2E2F0" height="30.2969" style="stroke:#181818;stroke-width:0.5;" width="50" x="705" y="50"/><text fill="#000000" font-family="sans-serif" font-size="14" lengthAdjust="spacing" textLength="36" x="712" y="69.9951">Deck</text><rect fill="#E2E2F0" height="30.2969" style="stroke:#181818;stroke-width:0.5;" width="50" x="709" y="1447.5391"/><rect fill="#E2E2F0" height="30.2969" style="stroke:#181818;stroke-width:0.5;" width="50" x="705" y="1451.5391"/><text fill="#000000" font-family="sans-serif" font-size="14" lengthAdjust="spacing" textLength="36" x="712" y="1471.5342">Deck</text><rect fill="#E2E2F0" height="30.2969" rx="2.5" ry="2.5" style="stroke:#181818;stroke-width:0.5;" width="46" x="837" y="50"/><text fill="#000000" font-family="sans-serif" font-size="14" lengthAdjust="spacing" textLength="32" x="844" y="69.9951">Card</text><rect fill="#E2E2F0" height="30.2969" rx="2.5" ry="2.5" style="stroke:#181818;stroke-width:0.5;" width="46" x="837" y="1447.5391"/><text fill="#000000" font-family="sans-serif" font-size="14" lengthAdjust="spacing" textLength="32" x="844" y="1467.5342">Card</text><polygon fill="#181818" points="305,108.4297,315,112.4297,305,116.4297,309,112.4297" style="stroke:#181818;stroke-width:1.0;"/><line style="stroke:#181818;stroke-width:1.0;" x1="53" x2="311" y1="112.4297" y2="112.4297"/><text fill="#000000" font-family="sans-serif" font-size="13" lengthAdjust="spacing" textLength="118" x="60" y="107.3638">'ブラックジャックを開始します'</text><polygon fill="#181818" points="720,137.5625,730,141.5625,720,145.5625,724,141.5625" style="stroke:#181818;stroke-width:1.0;"/><line style="stroke:#181818;stroke-width:1.0;" x1="317" x2="726" y1="141.5625" y2="141.5625"/><text fill="#000000" font-family="sans-serif" font-size="13" lengthAdjust="spacing" textLength="48" x="324" y="136.4966">デッキを取得</text><polygon fill="#181818" points="848,166.6953,858,170.6953,848,174.6953,852,170.6953" style="stroke:#181818;stroke-width:1.0;"/><line style="stroke:#181818;stroke-width:1.0;" x1="732" x2="854" y1="170.6953" y2="170.6953"/><text fill="#000000" font-family="sans-serif" font-size="13" lengthAdjust="spacing" textLength="48" x="739" y="165.6294">カードを取得</text><polygon fill="#181818" points="743,195.8281,733,199.8281,743,203.8281,739,199.8281" style="stroke:#181818;stroke-width:1.0;"/><line style="stroke:#181818;stroke-width:1.0;" x1="737" x2="859" y1="199.8281" y2="199.8281"/><text fill="#000000" font-family="sans-serif" font-size="13" lengthAdjust="spacing" textLength="104" x="749" y="194.7622">カードをシャッフルして返却</text><polygon fill="#181818" points="328,224.9609,318,228.9609,328,232.9609,324,228.9609" style="stroke:#181818;stroke-width:1.0;"/><line style="stroke:#181818;stroke-width:1.0;" x1="322" x2="731" y1="228.9609" y2="228.9609"/><text fill="#000000" font-family="sans-serif" font-size="13" lengthAdjust="spacing" textLength="48" x="334" y="223.895">デッキを返却</text><polygon fill="#181818" points="533,254.0938,543,258.0938,533,262.0938,537,258.0938" style="stroke:#181818;stroke-width:1.0;"/><line style="stroke:#181818;stroke-width:1.0;" x1="317" x2="539" y1="258.0938" y2="258.0938"/><text fill="#000000" font-family="sans-serif" font-size="13" lengthAdjust="spacing" textLength="64" x="324" y="253.0278">ディーラーを取得</text><polygon fill="#181818" points="720,283.2266,730,287.2266,720,291.2266,724,287.2266" style="stroke:#181818;stroke-width:1.0;"/><line style="stroke:#181818;stroke-width:1.0;" x1="545" x2="726" y1="287.2266" y2="287.2266"/><text fill="#000000" font-family="sans-serif" font-size="13" lengthAdjust="spacing" textLength="104" x="552" y="282.1606">デッキから2枚カードを取得</text><polygon fill="#181818" points="556,312.3594,546,316.3594,556,320.3594,552,316.3594" style="stroke:#181818;stroke-width:1.0;"/><line style="stroke:#181818;stroke-width:1.0;" x1="550" x2="731" y1="316.3594" y2="316.3594"/><text fill="#000000" font-family="sans-serif" font-size="13" lengthAdjust="spacing" textLength="104" x="562" y="311.2935">デッキから2枚カードを返却</text><polygon fill="#181818" points="328,341.4922,318,345.4922,328,349.4922,324,345.4922" style="stroke:#181818;stroke-width:1.0;"/><line style="stroke:#181818;stroke-width:1.0;" x1="322" x2="544" y1="345.4922" y2="345.4922"/><text fill="#000000" font-family="sans-serif" font-size="13" lengthAdjust="spacing" textLength="64" x="334" y="340.4263">ディーラーを返却</text><polygon fill="#181818" points="592,370.625,602,374.625,592,378.625,596,374.625" style="stroke:#181818;stroke-width:1.0;"/><line style="stroke:#181818;stroke-width:1.0;" x1="317" x2="598" y1="374.625" y2="374.625"/><text fill="#000000" font-family="sans-serif" font-size="13" lengthAdjust="spacing" textLength="64" x="324" y="369.5591">プレイヤーを取得</text><polygon fill="#181818" points="720,399.7578,730,403.7578,720,407.7578,724,403.7578" style="stroke:#181818;stroke-width:1.0;"/><line style="stroke:#181818;stroke-width:1.0;" x1="604" x2="726" y1="403.7578" y2="403.7578"/><text fill="#000000" font-family="sans-serif" font-size="13" lengthAdjust="spacing" textLength="104" x="611" y="398.6919">デッキから2枚カードを取得</text><polygon fill="#181818" points="615,428.8906,605,432.8906,615,436.8906,611,432.8906" style="stroke:#181818;stroke-width:1.0;"/><line style="stroke:#181818;stroke-width:1.0;" x1="609" x2="731" y1="432.8906" y2="432.8906"/><text fill="#000000" font-family="sans-serif" font-size="13" lengthAdjust="spacing" textLength="104" x="621" y="427.8247">デッキから2枚カードを返却</text><polygon fill="#181818" points="328,458.0234,318,462.0234,328,466.0234,324,462.0234" style="stroke:#181818;stroke-width:1.0;"/><line style="stroke:#181818;stroke-width:1.0;" x1="322" x2="603" y1="462.0234" y2="462.0234"/><text fill="#000000" font-family="sans-serif" font-size="13" lengthAdjust="spacing" textLength="64" x="334" y="456.9575">プレイヤーを返却</text><polygon fill="#181818" points="64,547.6875,54,551.6875,64,555.6875,60,551.6875" style="stroke:#181818;stroke-width:1.0;"/><line style="stroke:#181818;stroke-width:1.0;" x1="58" x2="316" y1="551.6875" y2="551.6875"/><text fill="#000000" font-family="sans-serif" font-size="13" lengthAdjust="spacing" textLength="155" x="70" y="486.0903">'あなたの引いたカードはハートの7です。</text><text fill="#000000" font-family="sans-serif" font-size="13" lengthAdjust="spacing" textLength="152" x="70" y="501.2231">あなたの引いたカードはクラブの8です。</text><text fill="#000000" font-family="sans-serif" font-size="13" lengthAdjust="spacing" textLength="170" x="70" y="516.356">ディーラーの引いたカードはダイヤのQです。</text><text fill="#000000" font-family="sans-serif" font-size="13" lengthAdjust="spacing" textLength="192" x="70" y="531.4888">ディーラーの引いた2枚目のカードはわかりません。</text><text fill="#000000" font-family="sans-serif" font-size="13" lengthAdjust="spacing" textLength="240" x="70" y="546.6216">あなたの現在の得点は15です。カードを引きますか？（Y/N）'</text><path d="M10,566.6875 L89,566.6875 L89,573.8203 L79,583.8203 L10,583.8203 L10,566.6875 " fill="#EEEEEE" style="stroke:#000000;stroke-width:1.5;"/><rect fill="none" height="340.5938" style="stroke:#000000;stroke-width:1.5;" width="759" x="10" y="566.6875"/><text fill="#000000" font-family="sans-serif" font-size="13" font-weight="bold" lengthAdjust="spacing" textLength="34" x="25" y="579.7544">Yの場合</text><polygon fill="#181818" points="305,600.9531,315,604.9531,305,608.9531,309,604.9531" style="stroke:#181818;stroke-width:1.0;"/><line style="stroke:#181818;stroke-width:1.0;" x1="53" x2="311" y1="604.9531" y2="604.9531"/><text fill="#000000" font-family="sans-serif" font-size="13" lengthAdjust="spacing" textLength="31" x="60" y="599.8872">Yを入力</text><polygon fill="#181818" points="592,630.0859,602,634.0859,592,638.0859,596,634.0859" style="stroke:#181818;stroke-width:1.0;"/><line style="stroke:#181818;stroke-width:1.0;" x1="317" x2="598" y1="634.0859" y2="634.0859"/><text fill="#000000" font-family="sans-serif" font-size="13" lengthAdjust="spacing" textLength="64" x="324" y="629.02">プレイヤーを取得</text><polygon fill="#181818" points="720,659.2188,730,663.2188,720,667.2188,724,663.2188" style="stroke:#181818;stroke-width:1.0;"/><line style="stroke:#181818;stroke-width:1.0;" x1="604" x2="726" y1="663.2188" y2="663.2188"/><text fill="#000000" font-family="sans-serif" font-size="13" lengthAdjust="spacing" textLength="104" x="611" y="658.1528">デッキから1枚カードを取得</text><polygon fill="#181818" points="615,688.3516,605,692.3516,615,696.3516,611,692.3516" style="stroke:#181818;stroke-width:1.0;"/><line style="stroke:#181818;stroke-width:1.0;" x1="609" x2="731" y1="692.3516" y2="692.3516"/><text fill="#000000" font-family="sans-serif" font-size="13" lengthAdjust="spacing" textLength="104" x="621" y="687.2856">デッキから1枚カードを返却</text><polygon fill="#181818" points="328,717.4844,318,721.4844,328,725.4844,324,721.4844" style="stroke:#181818;stroke-width:1.0;"/><line style="stroke:#181818;stroke-width:1.0;" x1="322" x2="603" y1="721.4844" y2="721.4844"/><text fill="#000000" font-family="sans-serif" font-size="13" lengthAdjust="spacing" textLength="64" x="334" y="716.4185">プレイヤーを返却</text><path d="M20,736.4844 L179,736.4844 L179,743.6172 L169,753.6172 L20,753.6172 L20,736.4844 " fill="#EEEEEE" style="stroke:#000000;stroke-width:1.5;"/><rect fill="none" height="88.3984" style="stroke:#000000;stroke-width:1.5;" width="334.5" x="20" y="736.4844"/><text fill="#000000" font-family="sans-serif" font-size="13" font-weight="bold" lengthAdjust="spacing" textLength="114" x="35" y="749.5513">プレイヤーの合計が21より上</text><polygon fill="#181818" points="64,770.75,54,774.75,64,778.75,60,774.75" style="stroke:#181818;stroke-width:1.0;"/><line style="stroke:#181818;stroke-width:1.0;" x1="58" x2="316" y1="774.75" y2="774.75"/><text fill="#000000" font-family="sans-serif" font-size="13" lengthAdjust="spacing" textLength="78" x="70" y="769.6841">'あなたの負けです！'</text><line style="stroke:#181818;stroke-width:1.0;" x1="53" x2="95" y1="803.8828" y2="803.8828"/><line style="stroke:#181818;stroke-width:1.0;" x1="95" x2="95" y1="803.8828" y2="816.8828"/><line style="stroke:#181818;stroke-width:1.0;" x1="54" x2="95" y1="816.8828" y2="816.8828"/><polygon fill="#181818" points="64,812.8828,54,816.8828,64,820.8828,60,816.8828" style="stroke:#181818;stroke-width:1.0;"/><text fill="#000000" font-family="sans-serif" font-size="13" lengthAdjust="spacing" textLength="118" x="60" y="798.8169">'ブラックジャックを終了します'</text><path d="M20,838.8828 L171,838.8828 L171,846.0156 L161,856.0156 L20,856.0156 L20,838.8828 " fill="#EEEEEE" style="stroke:#000000;stroke-width:1.5;"/><rect fill="none" height="61.3984" style="stroke:#000000;stroke-width:1.5;" width="334.5" x="20" y="838.8828"/><text fill="#000000" font-family="sans-serif" font-size="13" font-weight="bold" lengthAdjust="spacing" textLength="106" x="35" y="851.9497">プレイヤーの合計が21以下</text><polygon fill="#181818" points="64,888.2813,54,892.2813,64,896.2813,60,892.2813" style="stroke:#181818;stroke-width:1.0;"/><line style="stroke:#181818;stroke-width:1.0;" x1="58" x2="316" y1="892.2813" y2="892.2813"/><text fill="#000000" font-family="sans-serif" font-size="13" lengthAdjust="spacing" textLength="163" x="70" y="872.0825">'あなたの引いたカードはスペードの５です。</text><text fill="#000000" font-family="sans-serif" font-size="13" lengthAdjust="spacing" textLength="240" x="70" y="887.2153">あなたの現在の得点は20です。カードを引きますか？（Y/N）'</text><path d="M10,921.2813 L90,921.2813 L90,928.4141 L80,938.4141 L10,938.4141 L10,921.2813 " fill="#EEEEEE" style="stroke:#000000;stroke-width:1.5;"/><rect fill="none" height="510.2578" style="stroke:#000000;stroke-width:1.5;" width="769" x="10" y="921.2813"/><text fill="#000000" font-family="sans-serif" font-size="13" font-weight="bold" lengthAdjust="spacing" textLength="35" x="25" y="934.3481">Nの場合</text><polygon fill="#181818" points="305,955.5469,315,959.5469,305,963.5469,309,959.5469" style="stroke:#181818;stroke-width:1.0;"/><line style="stroke:#181818;stroke-width:1.0;" x1="53" x2="311" y1="959.5469" y2="959.5469"/><text fill="#000000" font-family="sans-serif" font-size="13" lengthAdjust="spacing" textLength="34" x="60" y="954.481">Nを入力</text><line style="stroke:#181818;stroke-width:1.0;" x1="317" x2="359" y1="988.6797" y2="988.6797"/><line style="stroke:#181818;stroke-width:1.0;" x1="359" x2="359" y1="988.6797" y2="1001.6797"/><line style="stroke:#181818;stroke-width:1.0;" x1="318" x2="359" y1="1001.6797" y2="1001.6797"/><polygon fill="#181818" points="328,997.6797,318,1001.6797,328,1005.6797,324,1001.6797" style="stroke:#181818;stroke-width:1.0;"/><text fill="#000000" font-family="sans-serif" font-size="13" lengthAdjust="spacing" textLength="214" x="324" y="983.6138">'ディーラーの引いた2枚目のカードはダイヤの2でした。'</text><path d="M279.5,1016.6797 L356.5,1016.6797 L356.5,1023.8125 L346.5,1033.8125 L279.5,1033.8125 L279.5,1016.6797 " fill="#EEEEEE" style="stroke:#000000;stroke-width:1.5;"/><rect fill="none" height="217.9297" style="stroke:#000000;stroke-width:1.5;" width="489.5" x="279.5" y="1016.6797"/><text fill="#000000" font-family="sans-serif" font-size="13" font-weight="bold" lengthAdjust="spacing" textLength="32" x="294.5" y="1029.7466">loop</text><text fill="#000000" font-family="sans-serif" font-size="11" font-weight="bold" lengthAdjust="spacing" textLength="110" x="371.5" y="1028.8901">[ディーラーの合計が17より下]</text><line style="stroke:#181818;stroke-width:1.0;" x1="317" x2="359" y1="1054.9453" y2="1054.9453"/><line style="stroke:#181818;stroke-width:1.0;" x1="359" x2="359" y1="1054.9453" y2="1067.9453"/><line style="stroke:#181818;stroke-width:1.0;" x1="318" x2="359" y1="1067.9453" y2="1067.9453"/><polygon fill="#181818" points="328,1063.9453,318,1067.9453,328,1071.9453,324,1067.9453" style="stroke:#181818;stroke-width:1.0;"/><text fill="#000000" font-family="sans-serif" font-size="13" lengthAdjust="spacing" textLength="142" x="324" y="1049.8794">'ディーラーの現在の得点は12です。'</text><polygon fill="#181818" points="533,1093.0781,543,1097.0781,533,1101.0781,537,1097.0781" style="stroke:#181818;stroke-width:1.0;"/><line style="stroke:#181818;stroke-width:1.0;" x1="317" x2="539" y1="1097.0781" y2="1097.0781"/><text fill="#000000" font-family="sans-serif" font-size="13" lengthAdjust="spacing" textLength="64" x="324" y="1092.0122">ディーラーを取得</text><polygon fill="#181818" points="720,1122.2109,730,1126.2109,720,1130.2109,724,1126.2109" style="stroke:#181818;stroke-width:1.0;"/><line style="stroke:#181818;stroke-width:1.0;" x1="545" x2="726" y1="1126.2109" y2="1126.2109"/><text fill="#000000" font-family="sans-serif" font-size="13" lengthAdjust="spacing" textLength="104" x="552" y="1121.145">デッキから1枚カードを取得</text><polygon fill="#181818" points="556,1151.3438,546,1155.3438,556,1159.3438,552,1155.3438" style="stroke:#181818;stroke-width:1.0;"/><line style="stroke:#181818;stroke-width:1.0;" x1="550" x2="731" y1="1155.3438" y2="1155.3438"/><text fill="#000000" font-family="sans-serif" font-size="13" lengthAdjust="spacing" textLength="104" x="562" y="1150.2778">デッキから1枚カードを返却</text><polygon fill="#181818" points="328,1180.4766,318,1184.4766,328,1188.4766,324,1184.4766" style="stroke:#181818;stroke-width:1.0;"/><line style="stroke:#181818;stroke-width:1.0;" x1="322" x2="544" y1="1184.4766" y2="1184.4766"/><text fill="#000000" font-family="sans-serif" font-size="13" lengthAdjust="spacing" textLength="64" x="334" y="1179.4106">ディーラーを返却</text><line style="stroke:#181818;stroke-width:1.0;" x1="317" x2="359" y1="1213.6094" y2="1213.6094"/><line style="stroke:#181818;stroke-width:1.0;" x1="359" x2="359" y1="1213.6094" y2="1226.6094"/><line style="stroke:#181818;stroke-width:1.0;" x1="318" x2="359" y1="1226.6094" y2="1226.6094"/><polygon fill="#181818" points="328,1222.6094,318,1226.6094,328,1230.6094,324,1226.6094" style="stroke:#181818;stroke-width:1.0;"/><text fill="#000000" font-family="sans-serif" font-size="13" lengthAdjust="spacing" textLength="174" x="324" y="1208.5435">'ディーラーの引いたカードはハートのKです。'</text><path d="M20,1248.6094 L171,1248.6094 L171,1255.7422 L161,1265.7422 L20,1265.7422 L20,1248.6094 " fill="#EEEEEE" style="stroke:#000000;stroke-width:1.5;"/><rect fill="none" height="175.9297" style="stroke:#000000;stroke-width:1.5;" width="431" x="20" y="1248.6094"/><text fill="#000000" font-family="sans-serif" font-size="13" font-weight="bold" lengthAdjust="spacing" textLength="106" x="35" y="1261.6763">ディーラーの合計が17以上</text><line style="stroke:#181818;stroke-width:1.0;" x1="317" x2="359" y1="1302.0078" y2="1302.0078"/><line style="stroke:#181818;stroke-width:1.0;" x1="359" x2="359" y1="1302.0078" y2="1315.0078"/><line style="stroke:#181818;stroke-width:1.0;" x1="318" x2="359" y1="1315.0078" y2="1315.0078"/><polygon fill="#181818" points="328,1311.0078,318,1315.0078,328,1319.0078,324,1315.0078" style="stroke:#181818;stroke-width:1.0;"/><text fill="#000000" font-family="sans-serif" font-size="13" lengthAdjust="spacing" textLength="99" x="324" y="1281.8091">'あなたの得点は20です。</text><text fill="#000000" font-family="sans-serif" font-size="13" lengthAdjust="spacing" textLength="115" x="324" y="1296.9419">ディーラーの得点は22です。'</text><polygon fill="#181818" points="64,1370.4063,54,1374.4063,64,1378.4063,60,1374.4063" style="stroke:#181818;stroke-width:1.0;"/><line style="stroke:#181818;stroke-width:1.0;" x1="58" x2="316" y1="1374.4063" y2="1374.4063"/><text fill="#000000" font-family="sans-serif" font-size="13" lengthAdjust="spacing" textLength="75" x="70" y="1339.0747">'あなたの勝ちです！</text><text fill="#000000" font-family="sans-serif" font-size="13" lengthAdjust="spacing" textLength="13" x="70" y="1354.2075">or</text><text fill="#000000" font-family="sans-serif" font-size="13" lengthAdjust="spacing" textLength="91" x="70" y="1369.3403">ディーラーの勝ちです！'</text><line style="stroke:#181818;stroke-width:1.0;" x1="53" x2="95" y1="1403.5391" y2="1403.5391"/><line style="stroke:#181818;stroke-width:1.0;" x1="95" x2="95" y1="1403.5391" y2="1416.5391"/><line style="stroke:#181818;stroke-width:1.0;" x1="54" x2="95" y1="1416.5391" y2="1416.5391"/><polygon fill="#181818" points="64,1412.5391,54,1416.5391,64,1420.5391,60,1416.5391" style="stroke:#181818;stroke-width:1.0;"/><text fill="#000000" font-family="sans-serif" font-size="13" lengthAdjust="spacing" textLength="118" x="60" y="1398.4731">'ブラックジャックを終了します'</text><!--MD5=[174c5f754b397c1e155d841a4d358610]
@startuml Blackjack
participant        Main        as Main
participant        Game        as Game
actor       Dealer       as Dealer
actor       Player    as Me
collections Deck as Deck
participant        Card        as Card
Main -> Game : 'ブラックジャックを開始します'
Game -> Deck: デッキを取得
Deck -> Card: カードを取得
Card -> Deck: カードをシャッフルして返却
Deck -> Game: デッキを返却
Game -> Dealer: ディーラーを取得
Dealer -> Deck: デッキから2枚カードを取得
Deck -> Dealer: デッキから2枚カードを返却
Dealer -> Game: ディーラーを返却
Game -> Me: プレイヤーを取得
Me -> Deck: デッキから2枚カードを取得
Deck -> Me: デッキから2枚カードを返却
Me -> Game: プレイヤーを返却
Game -> Main : 'あなたの引いたカードはハートの7です。\nあなたの引いたカードはクラブの8です。\nディーラーの引いたカードはダイヤのQです。\nディーラーの引いた2枚目のカードはわかりません。\nあなたの現在の得点は15です。カードを引きますか？（Y/N）'
group Yの場合
Main -> Game : Yを入力
Game -> Me: プレイヤーを取得
Me -> Deck: デッキから1枚カードを取得
Deck -> Me: デッキから1枚カードを返却
Me -> Game: プレイヤーを返却
  group プレイヤーの合計が21より上
  Game -> Main :'あなたの負けです！'
  Main -> Main : 'ブラックジャックを終了します'
  end
  group プレイヤーの合計が21以下
  Game -> Main :'あなたの引いたカードはスペードの５です。\nあなたの現在の得点は20です。カードを引きますか？（Y/N）'
  end
end
group Nの場合
Main -> Game : Nを入力
Game -> Game :'ディーラーの引いた2枚目のカードはダイヤの2でした。'
  loop ディーラーの合計が17より下
  Game -> Game :'ディーラーの現在の得点は12です。'
  Game -> Dealer: ディーラーを取得
  Dealer -> Deck: デッキから1枚カードを取得
  Deck -> Dealer: デッキから1枚カードを返却
  Dealer -> Game: ディーラーを返却
  Game -> Game :'ディーラーの引いたカードはハートのKです。'
  end
  group ディーラーの合計が17以上
  Game -> Game :'あなたの得点は20です。\nディーラーの得点は22です。'
  Game -> Main :'あなたの勝ちです！\nor\nディーラーの勝ちです！'
  Main -> Main : 'ブラックジャックを終了します'
  end
end
@enduml

PlantUML version 1.2022.7(Tue Aug 23 02:01:30 JST 2022)
(GPL source distribution)
Java Runtime: OpenJDK Runtime Environment
JVM: OpenJDK 64-Bit Server VM
Default Encoding: UTF-8
Language: en
Country: null
--></g></svg>