<?xml version="1.0" encoding="UTF-8" standalone="no"?><svg xmlns="http://www.w3.org/2000/svg" xmlns:xlink="http://www.w3.org/1999/xlink" contentStyleType="text/css" height="2207px" preserveAspectRatio="none" style="width:1517px;height:2207px;background:#FFFFFF;" version="1.1" viewBox="0 0 1517 2207" width="1517px" zoomAndPan="magnify"><defs/><g><rect fill="none" height="298.4609" style="stroke:#000000;stroke-width:1.5;" width="1322.5" x="10" y="814.8828"/><rect fill="none" height="46.2656" style="stroke:#000000;stroke-width:1.5;" width="499.5" x="20" y="984.6797"/><rect fill="none" height="61.3984" style="stroke:#000000;stroke-width:1.5;" width="499.5" x="20" y="1044.9453"/><rect fill="none" height="982.3828" style="stroke:#000000;stroke-width:1.5;" width="1342.5" x="10" y="1127.3438"/><rect fill="none" height="427.8594" style="stroke:#000000;stroke-width:1.5;" width="908" x="434.5" y="1180.6094"/><rect fill="none" height="250.1953" style="stroke:#000000;stroke-width:1.5;" width="888" x="444.5" y="1204.7422"/><rect fill="none" height="59.2656" style="stroke:#000000;stroke-width:1.5;" width="250" x="444.5" y="1468.9375"/><rect fill="none" height="59.2656" style="stroke:#000000;stroke-width:1.5;" width="263" x="444.5" y="1542.2031"/><rect fill="none" height="217.9297" style="stroke:#000000;stroke-width:1.5;" width="888" x="444.5" y="1664.6016"/><rect fill="none" height="206.1953" style="stroke:#000000;stroke-width:1.5;" width="661" x="20" y="1896.5313"/><line style="stroke:#181818;stroke-width:0.5;stroke-dasharray:5.0,5.0;" x1="53" x2="53" y1="81.2969" y2="2126.7266"/><line style="stroke:#181818;stroke-width:0.5;stroke-dasharray:5.0,5.0;" x1="481.5" x2="481.5" y1="81.2969" y2="2126.7266"/><line style="stroke:#181818;stroke-width:0.5;stroke-dasharray:5.0,5.0;" x1="823.5" x2="823.5" y1="81.2969" y2="2126.7266"/><line style="stroke:#181818;stroke-width:0.5;stroke-dasharray:5.0,5.0;" x1="907.5" x2="907.5" y1="81.2969" y2="2126.7266"/><line style="stroke:#181818;stroke-width:0.5;stroke-dasharray:5.0,5.0;" x1="1009.5" x2="1009.5" y1="81.2969" y2="2126.7266"/><line style="stroke:#181818;stroke-width:0.5;stroke-dasharray:5.0,5.0;" x1="1107.5" x2="1107.5" y1="81.2969" y2="2126.7266"/><line style="stroke:#181818;stroke-width:0.5;stroke-dasharray:5.0,5.0;" x1="1295.5" x2="1295.5" y1="81.2969" y2="2126.7266"/><line style="stroke:#181818;stroke-width:0.5;stroke-dasharray:5.0,5.0;" x1="1488.5" x2="1488.5" y1="81.2969" y2="2126.7266"/><rect fill="#E2E2F0" height="30.2969" rx="2.5" ry="2.5" style="stroke:#181818;stroke-width:0.5;" width="46" x="30" y="50"/><text fill="#000000" font-family="sans-serif" font-size="14" lengthAdjust="spacing" textLength="32" x="37" y="69.9951">Main</text><rect fill="#E2E2F0" height="30.2969" rx="2.5" ry="2.5" style="stroke:#181818;stroke-width:0.5;" width="46" x="30" y="2125.7266"/><text fill="#000000" font-family="sans-serif" font-size="14" lengthAdjust="spacing" textLength="32" x="37" y="2145.7217">Main</text><rect fill="#E2E2F0" height="30.2969" rx="2.5" ry="2.5" style="stroke:#181818;stroke-width:0.5;" width="55" x="454.5" y="50"/><text fill="#000000" font-family="sans-serif" font-size="14" lengthAdjust="spacing" textLength="41" x="461.5" y="69.9951">Game</text><rect fill="#E2E2F0" height="30.2969" rx="2.5" ry="2.5" style="stroke:#181818;stroke-width:0.5;" width="55" x="454.5" y="2125.7266"/><text fill="#000000" font-family="sans-serif" font-size="14" lengthAdjust="spacing" textLength="41" x="461.5" y="2145.7217">Game</text><text fill="#000000" font-family="sans-serif" font-size="14" lengthAdjust="spacing" textLength="45" x="798.5" y="77.9951">Dealer</text><ellipse cx="824" cy="13.5" fill="#E2E2F0" rx="8" ry="8" style="stroke:#181818;stroke-width:0.5;"/><path d="M824,21.5 L824,48.5 M811,29.5 L837,29.5 M824,48.5 L811,63.5 M824,48.5 L837,63.5 " fill="none" style="stroke:#181818;stroke-width:0.5;"/><text fill="#000000" font-family="sans-serif" font-size="14" lengthAdjust="spacing" textLength="45" x="798.5" y="2138.7217">Dealer</text><ellipse cx="824" cy="2150.5234" fill="#E2E2F0" rx="8" ry="8" style="stroke:#181818;stroke-width:0.5;"/><path d="M824,2158.5234 L824,2185.5234 M811,2166.5234 L837,2166.5234 M824,2185.5234 L811,2200.5234 M824,2185.5234 L837,2200.5234 " fill="none" style="stroke:#181818;stroke-width:0.5;"/><text fill="#000000" font-family="sans-serif" font-size="14" lengthAdjust="spacing" textLength="90" x="859.5" y="77.9951">ManualPlayer</text><ellipse cx="907.5" cy="13.5" fill="#E2E2F0" rx="8" ry="8" style="stroke:#181818;stroke-width:0.5;"/><path d="M907.5,21.5 L907.5,48.5 M894.5,29.5 L920.5,29.5 M907.5,48.5 L894.5,63.5 M907.5,48.5 L920.5,63.5 " fill="none" style="stroke:#181818;stroke-width:0.5;"/><text fill="#000000" font-family="sans-serif" font-size="14" lengthAdjust="spacing" textLength="90" x="859.5" y="2138.7217">ManualPlayer</text><ellipse cx="907.5" cy="2150.5234" fill="#E2E2F0" rx="8" ry="8" style="stroke:#181818;stroke-width:0.5;"/><path d="M907.5,2158.5234 L907.5,2185.5234 M894.5,2166.5234 L920.5,2166.5234 M907.5,2185.5234 L894.5,2200.5234 M907.5,2185.5234 L920.5,2200.5234 " fill="none" style="stroke:#181818;stroke-width:0.5;"/><text fill="#000000" font-family="sans-serif" font-size="14" lengthAdjust="spacing" textLength="82" x="965.5" y="77.9951">AutoPlayer1</text><ellipse cx="1009.5" cy="13.5" fill="#E2E2F0" rx="8" ry="8" style="stroke:#181818;stroke-width:0.5;"/><path d="M1009.5,21.5 L1009.5,48.5 M996.5,29.5 L1022.5,29.5 M1009.5,48.5 L996.5,63.5 M1009.5,48.5 L1022.5,63.5 " fill="none" style="stroke:#181818;stroke-width:0.5;"/><text fill="#000000" font-family="sans-serif" font-size="14" lengthAdjust="spacing" textLength="82" x="965.5" y="2138.7217">AutoPlayer1</text><ellipse cx="1009.5" cy="2150.5234" fill="#E2E2F0" rx="8" ry="8" style="stroke:#181818;stroke-width:0.5;"/><path d="M1009.5,2158.5234 L1009.5,2185.5234 M996.5,2166.5234 L1022.5,2166.5234 M1009.5,2185.5234 L996.5,2200.5234 M1009.5,2185.5234 L1022.5,2200.5234 " fill="none" style="stroke:#181818;stroke-width:0.5;"/><text fill="#000000" font-family="sans-serif" font-size="14" lengthAdjust="spacing" textLength="82" x="1063.5" y="77.9951">AutoPlayer2</text><ellipse cx="1107.5" cy="13.5" fill="#E2E2F0" rx="8" ry="8" style="stroke:#181818;stroke-width:0.5;"/><path d="M1107.5,21.5 L1107.5,48.5 M1094.5,29.5 L1120.5,29.5 M1107.5,48.5 L1094.5,63.5 M1107.5,48.5 L1120.5,63.5 " fill="none" style="stroke:#181818;stroke-width:0.5;"/><text fill="#000000" font-family="sans-serif" font-size="14" lengthAdjust="spacing" textLength="82" x="1063.5" y="2138.7217">AutoPlayer2</text><ellipse cx="1107.5" cy="2150.5234" fill="#E2E2F0" rx="8" ry="8" style="stroke:#181818;stroke-width:0.5;"/><path d="M1107.5,2158.5234 L1107.5,2185.5234 M1094.5,2166.5234 L1120.5,2166.5234 M1107.5,2185.5234 L1094.5,2200.5234 M1107.5,2185.5234 L1120.5,2200.5234 " fill="none" style="stroke:#181818;stroke-width:0.5;"/><rect fill="#E2E2F0" height="30.2969" style="stroke:#181818;stroke-width:0.5;" width="50" x="1272.5" y="46"/><rect fill="#E2E2F0" height="30.2969" style="stroke:#181818;stroke-width:0.5;" width="50" x="1268.5" y="50"/><text fill="#000000" font-family="sans-serif" font-size="14" lengthAdjust="spacing" textLength="36" x="1275.5" y="69.9951">Deck</text><rect fill="#E2E2F0" height="30.2969" style="stroke:#181818;stroke-width:0.5;" width="50" x="1272.5" y="2125.7266"/><rect fill="#E2E2F0" height="30.2969" style="stroke:#181818;stroke-width:0.5;" width="50" x="1268.5" y="2129.7266"/><text fill="#000000" font-family="sans-serif" font-size="14" lengthAdjust="spacing" textLength="36" x="1275.5" y="2149.7217">Deck</text><rect fill="#E2E2F0" height="30.2969" rx="2.5" ry="2.5" style="stroke:#181818;stroke-width:0.5;" width="46" x="1465.5" y="50"/><text fill="#000000" font-family="sans-serif" font-size="14" lengthAdjust="spacing" textLength="32" x="1472.5" y="69.9951">Card</text><rect fill="#E2E2F0" height="30.2969" rx="2.5" ry="2.5" style="stroke:#181818;stroke-width:0.5;" width="46" x="1465.5" y="2125.7266"/><text fill="#000000" font-family="sans-serif" font-size="14" lengthAdjust="spacing" textLength="32" x="1472.5" y="2145.7217">Card</text><polygon fill="#181818" points="470,123.5625,480,127.5625,470,131.5625,474,127.5625" style="stroke:#181818;stroke-width:1.0;"/><line style="stroke:#181818;stroke-width:1.0;" x1="53" x2="476" y1="127.5625" y2="127.5625"/><text fill="#000000" font-family="sans-serif" font-size="13" lengthAdjust="spacing" textLength="405" x="60" y="107.3638">ブラックジャックを開始します プレイ人数を入力してください(1~3)</text><text fill="#000000" font-family="sans-serif" font-size="13" lengthAdjust="spacing" textLength="99" x="60" y="122.4966">人数が3人の場合</text><polygon fill="#181818" points="1283.5,152.6953,1293.5,156.6953,1283.5,160.6953,1287.5,156.6953" style="stroke:#181818;stroke-width:1.0;"/><line style="stroke:#181818;stroke-width:1.0;" x1="482" x2="1289.5" y1="156.6953" y2="156.6953"/><text fill="#000000" font-family="sans-serif" font-size="13" lengthAdjust="spacing" textLength="78" x="489" y="151.6294">デッキを取得</text><polygon fill="#181818" points="1476.5,181.8281,1486.5,185.8281,1476.5,189.8281,1480.5,185.8281" style="stroke:#181818;stroke-width:1.0;"/><line style="stroke:#181818;stroke-width:1.0;" x1="1295.5" x2="1482.5" y1="185.8281" y2="185.8281"/><text fill="#000000" font-family="sans-serif" font-size="13" lengthAdjust="spacing" textLength="78" x="1302.5" y="180.7622">カードを取得</text><polygon fill="#181818" points="1306.5,210.9609,1296.5,214.9609,1306.5,218.9609,1302.5,214.9609" style="stroke:#181818;stroke-width:1.0;"/><line style="stroke:#181818;stroke-width:1.0;" x1="1300.5" x2="1487.5" y1="214.9609" y2="214.9609"/><text fill="#000000" font-family="sans-serif" font-size="13" lengthAdjust="spacing" textLength="169" x="1312.5" y="209.895">カードをシャッフルして返却</text><polygon fill="#181818" points="493,240.0938,483,244.0938,493,248.0938,489,244.0938" style="stroke:#181818;stroke-width:1.0;"/><line style="stroke:#181818;stroke-width:1.0;" x1="487" x2="1294.5" y1="244.0938" y2="244.0938"/><text fill="#000000" font-family="sans-serif" font-size="13" lengthAdjust="spacing" textLength="78" x="499" y="239.0278">デッキを返却</text><polygon fill="#181818" points="812,269.2266,822,273.2266,812,277.2266,816,273.2266" style="stroke:#181818;stroke-width:1.0;"/><line style="stroke:#181818;stroke-width:1.0;" x1="482" x2="818" y1="273.2266" y2="273.2266"/><text fill="#000000" font-family="sans-serif" font-size="13" lengthAdjust="spacing" textLength="104" x="489" y="268.1606">ディーラーを取得</text><polygon fill="#181818" points="1283.5,298.3594,1293.5,302.3594,1283.5,306.3594,1287.5,302.3594" style="stroke:#181818;stroke-width:1.0;"/><line style="stroke:#181818;stroke-width:1.0;" x1="824" x2="1289.5" y1="302.3594" y2="302.3594"/><text fill="#000000" font-family="sans-serif" font-size="13" lengthAdjust="spacing" textLength="164" x="831" y="297.2935">デッキから2枚カードを取得</text><polygon fill="#181818" points="835,327.4922,825,331.4922,835,335.4922,831,331.4922" style="stroke:#181818;stroke-width:1.0;"/><line style="stroke:#181818;stroke-width:1.0;" x1="829" x2="1294.5" y1="331.4922" y2="331.4922"/><text fill="#000000" font-family="sans-serif" font-size="13" lengthAdjust="spacing" textLength="164" x="841" y="326.4263">デッキから2枚カードを返却</text><polygon fill="#181818" points="493,356.625,483,360.625,493,364.625,489,360.625" style="stroke:#181818;stroke-width:1.0;"/><line style="stroke:#181818;stroke-width:1.0;" x1="487" x2="823" y1="360.625" y2="360.625"/><text fill="#000000" font-family="sans-serif" font-size="13" lengthAdjust="spacing" textLength="104" x="499" y="355.5591">ディーラーを返却</text><polygon fill="#181818" points="895.5,385.7578,905.5,389.7578,895.5,393.7578,899.5,389.7578" style="stroke:#181818;stroke-width:1.0;"/><line style="stroke:#181818;stroke-width:1.0;" x1="482" x2="901.5" y1="389.7578" y2="389.7578"/><text fill="#000000" font-family="sans-serif" font-size="13" lengthAdjust="spacing" textLength="169" x="489" y="384.6919">マニュアルプレイヤーを取得</text><polygon fill="#181818" points="1283.5,414.8906,1293.5,418.8906,1283.5,422.8906,1287.5,418.8906" style="stroke:#181818;stroke-width:1.0;"/><line style="stroke:#181818;stroke-width:1.0;" x1="907.5" x2="1289.5" y1="418.8906" y2="418.8906"/><text fill="#000000" font-family="sans-serif" font-size="13" lengthAdjust="spacing" textLength="164" x="914.5" y="413.8247">デッキから2枚カードを取得</text><polygon fill="#181818" points="918.5,444.0234,908.5,448.0234,918.5,452.0234,914.5,448.0234" style="stroke:#181818;stroke-width:1.0;"/><line style="stroke:#181818;stroke-width:1.0;" x1="912.5" x2="1294.5" y1="448.0234" y2="448.0234"/><text fill="#000000" font-family="sans-serif" font-size="13" lengthAdjust="spacing" textLength="164" x="924.5" y="442.9575">デッキから2枚カードを返却</text><polygon fill="#181818" points="493,473.1563,483,477.1563,493,481.1563,489,477.1563" style="stroke:#181818;stroke-width:1.0;"/><line style="stroke:#181818;stroke-width:1.0;" x1="487" x2="906.5" y1="477.1563" y2="477.1563"/><text fill="#000000" font-family="sans-serif" font-size="13" lengthAdjust="spacing" textLength="169" x="499" y="472.0903">マニュアルプレイヤーを返却</text><polygon fill="#181818" points="997.5,502.2891,1007.5,506.2891,997.5,510.2891,1001.5,506.2891" style="stroke:#181818;stroke-width:1.0;"/><line style="stroke:#181818;stroke-width:1.0;" x1="482" x2="1003.5" y1="506.2891" y2="506.2891"/><text fill="#000000" font-family="sans-serif" font-size="13" lengthAdjust="spacing" textLength="151" x="489" y="501.2231">オートプレイヤー1を取得</text><polygon fill="#181818" points="1283.5,531.4219,1293.5,535.4219,1283.5,539.4219,1287.5,535.4219" style="stroke:#181818;stroke-width:1.0;"/><line style="stroke:#181818;stroke-width:1.0;" x1="1009.5" x2="1289.5" y1="535.4219" y2="535.4219"/><text fill="#000000" font-family="sans-serif" font-size="13" lengthAdjust="spacing" textLength="164" x="1016.5" y="530.356">デッキから2枚カードを取得</text><polygon fill="#181818" points="1020.5,560.5547,1010.5,564.5547,1020.5,568.5547,1016.5,564.5547" style="stroke:#181818;stroke-width:1.0;"/><line style="stroke:#181818;stroke-width:1.0;" x1="1014.5" x2="1294.5" y1="564.5547" y2="564.5547"/><text fill="#000000" font-family="sans-serif" font-size="13" lengthAdjust="spacing" textLength="164" x="1026.5" y="559.4888">デッキから2枚カードを返却</text><polygon fill="#181818" points="493,589.6875,483,593.6875,493,597.6875,489,593.6875" style="stroke:#181818;stroke-width:1.0;"/><line style="stroke:#181818;stroke-width:1.0;" x1="487" x2="1008.5" y1="593.6875" y2="593.6875"/><text fill="#000000" font-family="sans-serif" font-size="13" lengthAdjust="spacing" textLength="151" x="499" y="588.6216">オートプレイヤー1を返却</text><polygon fill="#181818" points="1095.5,618.8203,1105.5,622.8203,1095.5,626.8203,1099.5,622.8203" style="stroke:#181818;stroke-width:1.0;"/><line style="stroke:#181818;stroke-width:1.0;" x1="482" x2="1101.5" y1="622.8203" y2="622.8203"/><text fill="#000000" font-family="sans-serif" font-size="13" lengthAdjust="spacing" textLength="151" x="489" y="617.7544">オートプレイヤー2を取得</text><polygon fill="#181818" points="1283.5,647.9531,1293.5,651.9531,1283.5,655.9531,1287.5,651.9531" style="stroke:#181818;stroke-width:1.0;"/><line style="stroke:#181818;stroke-width:1.0;" x1="1107.5" x2="1289.5" y1="651.9531" y2="651.9531"/><text fill="#000000" font-family="sans-serif" font-size="13" lengthAdjust="spacing" textLength="164" x="1114.5" y="646.8872">デッキから2枚カードを取得</text><polygon fill="#181818" points="1118.5,677.0859,1108.5,681.0859,1118.5,685.0859,1114.5,681.0859" style="stroke:#181818;stroke-width:1.0;"/><line style="stroke:#181818;stroke-width:1.0;" x1="1112.5" x2="1294.5" y1="681.0859" y2="681.0859"/><text fill="#000000" font-family="sans-serif" font-size="13" lengthAdjust="spacing" textLength="164" x="1124.5" y="676.02">デッキから2枚カードを返却</text><polygon fill="#181818" points="493,706.2188,483,710.2188,493,714.2188,489,710.2188" style="stroke:#181818;stroke-width:1.0;"/><line style="stroke:#181818;stroke-width:1.0;" x1="487" x2="1106.5" y1="710.2188" y2="710.2188"/><text fill="#000000" font-family="sans-serif" font-size="13" lengthAdjust="spacing" textLength="151" x="499" y="705.1528">オートプレイヤー2を返却</text><polygon fill="#181818" points="64,795.8828,54,799.8828,64,803.8828,60,799.8828" style="stroke:#181818;stroke-width:1.0;"/><line style="stroke:#181818;stroke-width:1.0;" x1="58" x2="481" y1="799.8828" y2="799.8828"/><text fill="#000000" font-family="sans-serif" font-size="13" lengthAdjust="spacing" textLength="242" x="70" y="734.2856">あなたの引いたカードはハートの7です。</text><text fill="#000000" font-family="sans-serif" font-size="13" lengthAdjust="spacing" textLength="242" x="70" y="749.4185">あなたの引いたカードはクラブの8です。</text><text fill="#000000" font-family="sans-serif" font-size="13" lengthAdjust="spacing" textLength="270" x="70" y="764.5513">ディーラーの引いたカードはダイヤのQです。</text><text fill="#000000" font-family="sans-serif" font-size="13" lengthAdjust="spacing" textLength="307" x="70" y="779.6841">ディーラーの引いた2枚目のカードはわかりません。</text><text fill="#000000" font-family="sans-serif" font-size="13" lengthAdjust="spacing" textLength="362" x="70" y="794.8169">あなたの現在の得点は15です。カードを引きますか？（Y/N）</text><path d="M10,814.8828 L104,814.8828 L104,822.0156 L94,832.0156 L10,832.0156 L10,814.8828 " fill="#EEEEEE" style="stroke:#000000;stroke-width:1.5;"/><rect fill="none" height="298.4609" style="stroke:#000000;stroke-width:1.5;" width="1322.5" x="10" y="814.8828"/><text fill="#000000" font-family="sans-serif" font-size="13" font-weight="bold" lengthAdjust="spacing" textLength="49" x="25" y="827.9497">Yの場合</text><polygon fill="#181818" points="470,849.1484,480,853.1484,470,857.1484,474,853.1484" style="stroke:#181818;stroke-width:1.0;"/><line style="stroke:#181818;stroke-width:1.0;" x1="53" x2="476" y1="853.1484" y2="853.1484"/><text fill="#000000" font-family="sans-serif" font-size="13" lengthAdjust="spacing" textLength="46" x="60" y="848.0825">Yを入力</text><polygon fill="#181818" points="895.5,878.2813,905.5,882.2813,895.5,886.2813,899.5,882.2813" style="stroke:#181818;stroke-width:1.0;"/><line style="stroke:#181818;stroke-width:1.0;" x1="482" x2="901.5" y1="882.2813" y2="882.2813"/><text fill="#000000" font-family="sans-serif" font-size="13" lengthAdjust="spacing" textLength="169" x="489" y="877.2153">マニュアルプレイヤーを取得</text><polygon fill="#181818" points="1283.5,907.4141,1293.5,911.4141,1283.5,915.4141,1287.5,911.4141" style="stroke:#181818;stroke-width:1.0;"/><line style="stroke:#181818;stroke-width:1.0;" x1="907.5" x2="1289.5" y1="911.4141" y2="911.4141"/><text fill="#000000" font-family="sans-serif" font-size="13" lengthAdjust="spacing" textLength="164" x="914.5" y="906.3481">デッキから1枚カードを取得</text><polygon fill="#181818" points="918.5,936.5469,908.5,940.5469,918.5,944.5469,914.5,940.5469" style="stroke:#181818;stroke-width:1.0;"/><line style="stroke:#181818;stroke-width:1.0;" x1="912.5" x2="1294.5" y1="940.5469" y2="940.5469"/><text fill="#000000" font-family="sans-serif" font-size="13" lengthAdjust="spacing" textLength="164" x="924.5" y="935.481">デッキから1枚カードを返却</text><polygon fill="#181818" points="493,965.6797,483,969.6797,493,973.6797,489,969.6797" style="stroke:#181818;stroke-width:1.0;"/><line style="stroke:#181818;stroke-width:1.0;" x1="487" x2="906.5" y1="969.6797" y2="969.6797"/><text fill="#000000" font-family="sans-serif" font-size="13" lengthAdjust="spacing" textLength="169" x="499" y="964.6138">マニュアルプレイヤーを返却</text><path d="M20,984.6797 L239,984.6797 L239,991.8125 L229,1001.8125 L20,1001.8125 L20,984.6797 " fill="#EEEEEE" style="stroke:#000000;stroke-width:1.5;"/><rect fill="none" height="46.2656" style="stroke:#000000;stroke-width:1.5;" width="499.5" x="20" y="984.6797"/><text fill="#000000" font-family="sans-serif" font-size="13" font-weight="bold" lengthAdjust="spacing" textLength="174" x="35" y="997.7466">プレイヤーの合計が21より上</text><polygon fill="#181818" points="64,1018.9453,54,1022.9453,64,1026.9453,60,1022.9453" style="stroke:#181818;stroke-width:1.0;"/><line style="stroke:#181818;stroke-width:1.0;" x1="58" x2="481" y1="1022.9453" y2="1022.9453"/><text fill="#000000" font-family="sans-serif" font-size="13" lengthAdjust="spacing" textLength="117" x="70" y="1017.8794">あなたの負けです！</text><path d="M20,1044.9453 L226,1044.9453 L226,1052.0781 L216,1062.0781 L20,1062.0781 L20,1044.9453 " fill="#EEEEEE" style="stroke:#000000;stroke-width:1.5;"/><rect fill="none" height="61.3984" style="stroke:#000000;stroke-width:1.5;" width="499.5" x="20" y="1044.9453"/><text fill="#000000" font-family="sans-serif" font-size="13" font-weight="bold" lengthAdjust="spacing" textLength="161" x="35" y="1058.0122">プレイヤーの合計が21以下</text><polygon fill="#181818" points="64,1094.3438,54,1098.3438,64,1102.3438,60,1098.3438" style="stroke:#181818;stroke-width:1.0;"/><line style="stroke:#181818;stroke-width:1.0;" x1="58" x2="481" y1="1098.3438" y2="1098.3438"/><text fill="#000000" font-family="sans-serif" font-size="13" lengthAdjust="spacing" textLength="260" x="70" y="1078.145">あなたの引いたカードはスペードの５です。</text><text fill="#000000" font-family="sans-serif" font-size="13" lengthAdjust="spacing" textLength="362" x="70" y="1093.2778">あなたの現在の得点は20です。カードを引きますか？（Y/N）</text><path d="M10,1127.3438 L105,1127.3438 L105,1134.4766 L95,1144.4766 L10,1144.4766 L10,1127.3438 " fill="#EEEEEE" style="stroke:#000000;stroke-width:1.5;"/><rect fill="none" height="982.3828" style="stroke:#000000;stroke-width:1.5;" width="1342.5" x="10" y="1127.3438"/><text fill="#000000" font-family="sans-serif" font-size="13" font-weight="bold" lengthAdjust="spacing" textLength="50" x="25" y="1140.4106">Nの場合</text><polygon fill="#181818" points="470,1161.6094,480,1165.6094,470,1169.6094,474,1165.6094" style="stroke:#181818;stroke-width:1.0;"/><line style="stroke:#181818;stroke-width:1.0;" x1="53" x2="476" y1="1165.6094" y2="1165.6094"/><text fill="#000000" font-family="sans-serif" font-size="13" lengthAdjust="spacing" textLength="49" x="60" y="1160.5435">Nを入力</text><path d="M434.5,1180.6094 L622.5,1180.6094 L622.5,1187.7422 L612.5,1197.7422 L434.5,1197.7422 L434.5,1180.6094 " fill="#EEEEEE" style="stroke:#000000;stroke-width:1.5;"/><rect fill="none" height="427.8594" style="stroke:#000000;stroke-width:1.5;" width="908" x="434.5" y="1180.6094"/><text fill="#000000" font-family="sans-serif" font-size="13" font-weight="bold" lengthAdjust="spacing" textLength="143" x="449.5" y="1193.6763">オートプレイヤーの挙動</text><path d="M444.5,1204.7422 L521.5,1204.7422 L521.5,1211.875 L511.5,1221.875 L444.5,1221.875 L444.5,1204.7422 " fill="#EEEEEE" style="stroke:#000000;stroke-width:1.5;"/><rect fill="none" height="250.1953" style="stroke:#000000;stroke-width:1.5;" width="888" x="444.5" y="1204.7422"/><text fill="#000000" font-family="sans-serif" font-size="13" font-weight="bold" lengthAdjust="spacing" textLength="32" x="459.5" y="1217.8091">loop</text><text fill="#000000" font-family="sans-serif" font-size="11" font-weight="bold" lengthAdjust="spacing" textLength="191" x="536.5" y="1216.9526">[オートプレイヤーの合計が17より下]</text><polygon fill="#181818" points="997.5,1239.0078,1007.5,1243.0078,997.5,1247.0078,1001.5,1243.0078" style="stroke:#181818;stroke-width:1.0;"/><line style="stroke:#181818;stroke-width:1.0;" x1="482" x2="1003.5" y1="1243.0078" y2="1243.0078"/><text fill="#000000" font-family="sans-serif" font-size="13" lengthAdjust="spacing" textLength="151" x="489" y="1237.9419">オートプレイヤー1を取得</text><polygon fill="#181818" points="1283.5,1268.1406,1293.5,1272.1406,1283.5,1276.1406,1287.5,1272.1406" style="stroke:#181818;stroke-width:1.0;"/><line style="stroke:#181818;stroke-width:1.0;" x1="1009.5" x2="1289.5" y1="1272.1406" y2="1272.1406"/><text fill="#000000" font-family="sans-serif" font-size="13" lengthAdjust="spacing" textLength="164" x="1016.5" y="1267.0747">デッキから1枚カードを取得</text><polygon fill="#181818" points="1020.5,1297.2734,1010.5,1301.2734,1020.5,1305.2734,1016.5,1301.2734" style="stroke:#181818;stroke-width:1.0;"/><line style="stroke:#181818;stroke-width:1.0;" x1="1014.5" x2="1294.5" y1="1301.2734" y2="1301.2734"/><text fill="#000000" font-family="sans-serif" font-size="13" lengthAdjust="spacing" textLength="164" x="1026.5" y="1296.2075">デッキから1枚カードを返却</text><polygon fill="#181818" points="493,1326.4063,483,1330.4063,493,1334.4063,489,1330.4063" style="stroke:#181818;stroke-width:1.0;"/><line style="stroke:#181818;stroke-width:1.0;" x1="487" x2="1008.5" y1="1330.4063" y2="1330.4063"/><text fill="#000000" font-family="sans-serif" font-size="13" lengthAdjust="spacing" textLength="151" x="499" y="1325.3403">オートプレイヤー1を返却</text><polygon fill="#181818" points="1095.5,1355.5391,1105.5,1359.5391,1095.5,1363.5391,1099.5,1359.5391" style="stroke:#181818;stroke-width:1.0;"/><line style="stroke:#181818;stroke-width:1.0;" x1="482" x2="1101.5" y1="1359.5391" y2="1359.5391"/><text fill="#000000" font-family="sans-serif" font-size="13" lengthAdjust="spacing" textLength="151" x="489" y="1354.4731">オートプレイヤー2を取得</text><polygon fill="#181818" points="1283.5,1384.6719,1293.5,1388.6719,1283.5,1392.6719,1287.5,1388.6719" style="stroke:#181818;stroke-width:1.0;"/><line style="stroke:#181818;stroke-width:1.0;" x1="1107.5" x2="1289.5" y1="1388.6719" y2="1388.6719"/><text fill="#000000" font-family="sans-serif" font-size="13" lengthAdjust="spacing" textLength="164" x="1114.5" y="1383.606">デッキから1枚カードを取得</text><polygon fill="#181818" points="1118.5,1413.8047,1108.5,1417.8047,1118.5,1421.8047,1114.5,1417.8047" style="stroke:#181818;stroke-width:1.0;"/><line style="stroke:#181818;stroke-width:1.0;" x1="1112.5" x2="1294.5" y1="1417.8047" y2="1417.8047"/><text fill="#000000" font-family="sans-serif" font-size="13" lengthAdjust="spacing" textLength="164" x="1124.5" y="1412.7388">デッキから1枚カードを返却</text><polygon fill="#181818" points="493,1442.9375,483,1446.9375,493,1450.9375,489,1446.9375" style="stroke:#181818;stroke-width:1.0;"/><line style="stroke:#181818;stroke-width:1.0;" x1="487" x2="1106.5" y1="1446.9375" y2="1446.9375"/><text fill="#000000" font-family="sans-serif" font-size="13" lengthAdjust="spacing" textLength="151" x="499" y="1441.8716">オートプレイヤー2を返却</text><path d="M444.5,1468.9375 L689.5,1468.9375 L689.5,1476.0703 L679.5,1486.0703 L444.5,1486.0703 L444.5,1468.9375 " fill="#EEEEEE" style="stroke:#000000;stroke-width:1.5;"/><rect fill="none" height="59.2656" style="stroke:#000000;stroke-width:1.5;" width="250" x="444.5" y="1468.9375"/><text fill="#000000" font-family="sans-serif" font-size="13" font-weight="bold" lengthAdjust="spacing" textLength="200" x="459.5" y="1482.0044">オートプレイヤーの合計が17以上</text><line style="stroke:#181818;stroke-width:1.0;" x1="482" x2="524" y1="1507.2031" y2="1507.2031"/><line style="stroke:#181818;stroke-width:1.0;" x1="524" x2="524" y1="1507.2031" y2="1520.2031"/><line style="stroke:#181818;stroke-width:1.0;" x1="483" x2="524" y1="1520.2031" y2="1520.2031"/><polygon fill="#181818" points="493,1516.2031,483,1520.2031,493,1524.2031,489,1520.2031" style="stroke:#181818;stroke-width:1.0;"/><text fill="#000000" font-family="sans-serif" font-size="13" lengthAdjust="spacing" textLength="182" x="489" y="1502.1372">オートプレイヤーの合計を取得</text><path d="M444.5,1542.2031 L702.5,1542.2031 L702.5,1549.3359 L692.5,1559.3359 L444.5,1559.3359 L444.5,1542.2031 " fill="#EEEEEE" style="stroke:#000000;stroke-width:1.5;"/><rect fill="none" height="59.2656" style="stroke:#000000;stroke-width:1.5;" width="263" x="444.5" y="1542.2031"/><text fill="#000000" font-family="sans-serif" font-size="13" font-weight="bold" lengthAdjust="spacing" textLength="213" x="459.5" y="1555.27">オートプレイヤーの合計が21より上</text><line style="stroke:#181818;stroke-width:1.0;" x1="482" x2="524" y1="1580.4688" y2="1580.4688"/><line style="stroke:#181818;stroke-width:1.0;" x1="524" x2="524" y1="1580.4688" y2="1593.4688"/><line style="stroke:#181818;stroke-width:1.0;" x1="483" x2="524" y1="1593.4688" y2="1593.4688"/><polygon fill="#181818" points="493,1589.4688,483,1593.4688,493,1597.4688,489,1593.4688" style="stroke:#181818;stroke-width:1.0;"/><text fill="#000000" font-family="sans-serif" font-size="13" lengthAdjust="spacing" textLength="169" x="489" y="1575.4028">オートプレイヤーの負けです</text><line style="stroke:#181818;stroke-width:1.0;" x1="482" x2="524" y1="1636.6016" y2="1636.6016"/><line style="stroke:#181818;stroke-width:1.0;" x1="524" x2="524" y1="1636.6016" y2="1649.6016"/><line style="stroke:#181818;stroke-width:1.0;" x1="483" x2="524" y1="1649.6016" y2="1649.6016"/><polygon fill="#181818" points="493,1645.6016,483,1649.6016,493,1653.6016,489,1649.6016" style="stroke:#181818;stroke-width:1.0;"/><text fill="#000000" font-family="sans-serif" font-size="13" lengthAdjust="spacing" textLength="328" x="489" y="1631.5356">ディーラーの引いた2枚目のカードはダイヤの2でした。</text><path d="M444.5,1664.6016 L521.5,1664.6016 L521.5,1671.7344 L511.5,1681.7344 L444.5,1681.7344 L444.5,1664.6016 " fill="#EEEEEE" style="stroke:#000000;stroke-width:1.5;"/><rect fill="none" height="217.9297" style="stroke:#000000;stroke-width:1.5;" width="888" x="444.5" y="1664.6016"/><text fill="#000000" font-family="sans-serif" font-size="13" font-weight="bold" lengthAdjust="spacing" textLength="32" x="459.5" y="1677.6685">loop</text><text fill="#000000" font-family="sans-serif" font-size="11" font-weight="bold" lengthAdjust="spacing" textLength="158" x="536.5" y="1676.812">[ディーラーの合計が17より下]</text><line style="stroke:#181818;stroke-width:1.0;" x1="482" x2="524" y1="1702.8672" y2="1702.8672"/><line style="stroke:#181818;stroke-width:1.0;" x1="524" x2="524" y1="1702.8672" y2="1715.8672"/><line style="stroke:#181818;stroke-width:1.0;" x1="483" x2="524" y1="1715.8672" y2="1715.8672"/><polygon fill="#181818" points="493,1711.8672,483,1715.8672,493,1719.8672,489,1715.8672" style="stroke:#181818;stroke-width:1.0;"/><text fill="#000000" font-family="sans-serif" font-size="13" lengthAdjust="spacing" textLength="211" x="489" y="1697.8013">ディーラーの現在の得点は12です。</text><polygon fill="#181818" points="812,1741,822,1745,812,1749,816,1745" style="stroke:#181818;stroke-width:1.0;"/><line style="stroke:#181818;stroke-width:1.0;" x1="482" x2="818" y1="1745" y2="1745"/><text fill="#000000" font-family="sans-serif" font-size="13" lengthAdjust="spacing" textLength="104" x="489" y="1739.9341">ディーラーを取得</text><polygon fill="#181818" points="1283.5,1770.1328,1293.5,1774.1328,1283.5,1778.1328,1287.5,1774.1328" style="stroke:#181818;stroke-width:1.0;"/><line style="stroke:#181818;stroke-width:1.0;" x1="824" x2="1289.5" y1="1774.1328" y2="1774.1328"/><text fill="#000000" font-family="sans-serif" font-size="13" lengthAdjust="spacing" textLength="164" x="831" y="1769.0669">デッキから1枚カードを取得</text><polygon fill="#181818" points="835,1799.2656,825,1803.2656,835,1807.2656,831,1803.2656" style="stroke:#181818;stroke-width:1.0;"/><line style="stroke:#181818;stroke-width:1.0;" x1="829" x2="1294.5" y1="1803.2656" y2="1803.2656"/><text fill="#000000" font-family="sans-serif" font-size="13" lengthAdjust="spacing" textLength="164" x="841" y="1798.1997">デッキから1枚カードを返却</text><polygon fill="#181818" points="493,1828.3984,483,1832.3984,493,1836.3984,489,1832.3984" style="stroke:#181818;stroke-width:1.0;"/><line style="stroke:#181818;stroke-width:1.0;" x1="487" x2="823" y1="1832.3984" y2="1832.3984"/><text fill="#000000" font-family="sans-serif" font-size="13" lengthAdjust="spacing" textLength="104" x="499" y="1827.3325">ディーラーを返却</text><line style="stroke:#181818;stroke-width:1.0;" x1="482" x2="524" y1="1861.5313" y2="1861.5313"/><line style="stroke:#181818;stroke-width:1.0;" x1="524" x2="524" y1="1861.5313" y2="1874.5313"/><line style="stroke:#181818;stroke-width:1.0;" x1="483" x2="524" y1="1874.5313" y2="1874.5313"/><polygon fill="#181818" points="493,1870.5313,483,1874.5313,493,1878.5313,489,1874.5313" style="stroke:#181818;stroke-width:1.0;"/><text fill="#000000" font-family="sans-serif" font-size="13" lengthAdjust="spacing" textLength="268" x="489" y="1856.4653">ディーラーの引いたカードはハートのKです。</text><path d="M20,1896.5313 L226,1896.5313 L226,1903.6641 L216,1913.6641 L20,1913.6641 L20,1896.5313 " fill="#EEEEEE" style="stroke:#000000;stroke-width:1.5;"/><rect fill="none" height="206.1953" style="stroke:#000000;stroke-width:1.5;" width="661" x="20" y="1896.5313"/><text fill="#000000" font-family="sans-serif" font-size="13" font-weight="bold" lengthAdjust="spacing" textLength="161" x="35" y="1909.5981">ディーラーの合計が17以上</text><line style="stroke:#181818;stroke-width:1.0;" x1="482" x2="524" y1="1980.1953" y2="1980.1953"/><line style="stroke:#181818;stroke-width:1.0;" x1="524" x2="524" y1="1980.1953" y2="1993.1953"/><line style="stroke:#181818;stroke-width:1.0;" x1="483" x2="524" y1="1993.1953" y2="1993.1953"/><polygon fill="#181818" points="493,1989.1953,483,1993.1953,493,1997.1953,489,1993.1953" style="stroke:#181818;stroke-width:1.0;"/><text fill="#000000" font-family="sans-serif" font-size="13" lengthAdjust="spacing" textLength="146" x="489" y="1929.731">あなたの得点は20です。</text><text fill="#000000" font-family="sans-serif" font-size="13" lengthAdjust="spacing" textLength="180" x="489" y="1944.8638">プレイヤー1の得点は20です。</text><text fill="#000000" font-family="sans-serif" font-size="13" lengthAdjust="spacing" textLength="180" x="489" y="1959.9966">プレイヤー2の得点は20です。</text><text fill="#000000" font-family="sans-serif" font-size="13" lengthAdjust="spacing" textLength="172" x="489" y="1975.1294">ディーラーの得点は22です。</text><polygon fill="#181818" points="64,2048.5938,54,2052.5938,64,2056.5938,60,2052.5938" style="stroke:#181818;stroke-width:1.0;"/><line style="stroke:#181818;stroke-width:1.0;" x1="58" x2="481" y1="2052.5938" y2="2052.5938"/><text fill="#000000" font-family="sans-serif" font-size="13" lengthAdjust="spacing" textLength="117" x="70" y="2017.2622">あなたの勝ちです！</text><text fill="#000000" font-family="sans-serif" font-size="13" lengthAdjust="spacing" textLength="151" x="70" y="2032.395">プレイヤー1の勝ちです！</text><text fill="#000000" font-family="sans-serif" font-size="13" lengthAdjust="spacing" textLength="151" x="70" y="2047.5278">プレイヤー2の勝ちです！</text><line style="stroke:#181818;stroke-width:1.0;" x1="53" x2="95" y1="2081.7266" y2="2081.7266"/><line style="stroke:#181818;stroke-width:1.0;" x1="95" x2="95" y1="2081.7266" y2="2094.7266"/><line style="stroke:#181818;stroke-width:1.0;" x1="54" x2="95" y1="2094.7266" y2="2094.7266"/><polygon fill="#181818" points="64,2090.7266,54,2094.7266,64,2098.7266,60,2094.7266" style="stroke:#181818;stroke-width:1.0;"/><text fill="#000000" font-family="sans-serif" font-size="13" lengthAdjust="spacing" textLength="182" x="60" y="2076.6606">ブラックジャックを終了します</text><!--MD5=[ec4d3bc2a1de696c5fccced7b65e70c2]
@startuml Blackjack
participant        Main        as Main
participant        Game        as Game
actor       Dealer       as Dealer
actor       ManualPlayer    as Me
actor       AutoPlayer1    as Pl1
actor       AutoPlayer2   as Pl2
collections Deck as Deck
participant        Card        as Card
Main -> Game : ブラックジャックを開始します プレイ人数を入力してください(1~3)\n人数が3人の場合
Game -> Deck: デッキを取得
Deck -> Card: カードを取得
Card -> Deck: カードをシャッフルして返却
Deck -> Game: デッキを返却
Game -> Dealer: ディーラーを取得
Dealer -> Deck: デッキから2枚カードを取得
Deck -> Dealer: デッキから2枚カードを返却
Dealer -> Game: ディーラーを返却
Game -> Me: マニュアルプレイヤーを取得
Me -> Deck: デッキから2枚カードを取得
Deck -> Me: デッキから2枚カードを返却
Me -> Game: マニュアルプレイヤーを返却
Game -> Pl1 : オートプレイヤー1を取得
Pl1 -> Deck: デッキから2枚カードを取得
Deck -> Pl1: デッキから2枚カードを返却
Pl1 -> Game: オートプレイヤー1を返却
Game -> Pl2 : オートプレイヤー2を取得
Pl2 -> Deck: デッキから2枚カードを取得
Deck -> Pl2: デッキから2枚カードを返却
Pl2 -> Game: オートプレイヤー2を返却
Game -> Main : あなたの引いたカードはハートの7です。\nあなたの引いたカードはクラブの8です。\nディーラーの引いたカードはダイヤのQです。\nディーラーの引いた2枚目のカードはわかりません。\nあなたの現在の得点は15です。カードを引きますか？（Y/N）
group Yの場合
Main -> Game : Yを入力
Game -> Me: マニュアルプレイヤーを取得
Me -> Deck: デッキから1枚カードを取得
Deck -> Me: デッキから1枚カードを返却
Me -> Game: マニュアルプレイヤーを返却
  group プレイヤーの合計が21より上
  Game -> Main : あなたの負けです！
  end
  group プレイヤーの合計が21以下
  Game -> Main : あなたの引いたカードはスペードの５です。\nあなたの現在の得点は20です。カードを引きますか？（Y/N）
  end
end
group Nの場合
Main -> Game : Nを入力
  group オートプレイヤーの挙動
    loop オートプレイヤーの合計が17より下
    Game -> Pl1 : オートプレイヤー1を取得
    Pl1 -> Deck: デッキから1枚カードを取得
    Deck -> Pl1: デッキから1枚カードを返却
    Pl1 -> Game: オートプレイヤー1を返却
    Game -> Pl2 : オートプレイヤー2を取得
    Pl2 -> Deck: デッキから1枚カードを取得
    Deck -> Pl2: デッキから1枚カードを返却
    Pl2 -> Game: オートプレイヤー2を返却
    end
    group オートプレイヤーの合計が17以上
    Game -> Game : オートプレイヤーの合計を取得
    end
    group オートプレイヤーの合計が21より上
    Game -> Game : オートプレイヤーの負けです
    end
  end
Game -> Game : ディーラーの引いた2枚目のカードはダイヤの2でした。
  loop ディーラーの合計が17より下
  Game -> Game : ディーラーの現在の得点は12です。
  Game -> Dealer: ディーラーを取得
  Dealer -> Deck: デッキから1枚カードを取得
  Deck -> Dealer: デッキから1枚カードを返却
  Dealer -> Game: ディーラーを返却
  Game -> Game : ディーラーの引いたカードはハートのKです。
  end
  group ディーラーの合計が17以上
  Game -> Game : あなたの得点は20です。\nプレイヤー1の得点は20です。\nプレイヤー2の得点は20です。\nディーラーの得点は22です。
  Game -> Main : あなたの勝ちです！\nプレイヤー1の勝ちです！\nプレイヤー2の勝ちです！
  Main -> Main : ブラックジャックを終了します
  end
end
@enduml

PlantUML version 1.2022.7(Tue Aug 23 02:01:30 JST 2022)
(GPL source distribution)
Java Runtime: OpenJDK Runtime Environment
JVM: OpenJDK 64-Bit Server VM
Default Encoding: UTF-8
Language: en
Country: null
--></g></svg>