<?xml version="1.0" encoding="UTF-8" standalone="no"?><svg xmlns="http://www.w3.org/2000/svg" xmlns:xlink="http://www.w3.org/1999/xlink" contentStyleType="text/css" height="388px" preserveAspectRatio="none" style="width:594px;height:388px;background:#FFFFFF;" version="1.1" viewBox="0 0 594 388" width="594px" zoomAndPan="magnify"><defs/><g><!--MD5=[8fd28995cee2fc2302c4c801997d92c6]
cluster BlackJack--><g id="cluster_BlackJack"><rect fill="none" height="375.5" rx="2.5" ry="2.5" style="stroke:#181818;stroke-width:1.0;" width="166" x="118" y="7"/><text fill="#000000" font-family="sans-serif" font-size="14" font-weight="bold" lengthAdjust="spacing" textLength="72" x="165" y="21.9951">BlackJack</text></g><g id="elem_UC1"><ellipse cx="199.8963" cy="57.2793" fill="#F1F1F1" rx="64.3963" ry="15.2793" style="stroke:#181818;stroke-width:0.5;"/><text fill="#000000" font-family="sans-serif" font-size="14" lengthAdjust="spacing" textLength="77" x="158.3963" y="61.0268">Game Start</text></g><g id="elem_UC2"><ellipse cx="203.9096" cy="170.3819" fill="#F1F1F1" rx="62.4096" ry="14.8819" style="stroke:#181818;stroke-width:0.5;"/><text fill="#000000" font-family="sans-serif" font-size="14" lengthAdjust="spacing" textLength="71" x="165.4096" y="174.1295">Draw Card</text></g><g id="elem_UC3"><ellipse cx="202.1869" cy="260.0634" fill="#F1F1F1" rx="39.1869" ry="14.5634" style="stroke:#181818;stroke-width:0.5;"/><text fill="#000000" font-family="sans-serif" font-size="14" lengthAdjust="spacing" textLength="39" x="180.5666" y="263.5876">Judge</text></g><g id="elem_UC4"><ellipse cx="201.1678" cy="350.3336" fill="#F1F1F1" rx="67.1678" ry="15.8336" style="stroke:#181818;stroke-width:0.5;"/><text fill="#000000" font-family="sans-serif" font-size="14" lengthAdjust="spacing" textLength="85" x="155.6678" y="354.0811">Game Finish</text></g><!--MD5=[f78695049e0a27d4224b05117a5117c4]
entity Me--><g id="elem_Me"><ellipse cx="53" cy="28" fill="#F1F1F1" rx="8" ry="8" style="stroke:#181818;stroke-width:0.5;"/><path d="M53,36 L53,63 M40,44 L66,44 M53,63 L40,78 M53,63 L66,78 " fill="none" style="stroke:#181818;stroke-width:0.5;"/><text fill="#000000" font-family="sans-serif" font-size="14" lengthAdjust="spacing" textLength="94" x="6" y="92.4951">Manual Player</text></g><!--MD5=[95d03f06073f8d2deb86c0f8106a57f9]
entity Pl1--><g id="elem_Pl1"><ellipse cx="343" cy="28" fill="#F1F1F1" rx="8" ry="8" style="stroke:#181818;stroke-width:0.5;"/><path d="M343,36 L343,63 M330,44 L356,44 M343,63 L330,78 M343,63 L356,78 " fill="none" style="stroke:#181818;stroke-width:0.5;"/><text fill="#000000" font-family="sans-serif" font-size="14" lengthAdjust="spacing" textLength="86" x="300" y="92.4951">Auto Player1</text></g><!--MD5=[910e63d9608fca11451802dad253bbb4]
entity Pl2--><g id="elem_Pl2"><ellipse cx="464" cy="28" fill="#F1F1F1" rx="8" ry="8" style="stroke:#181818;stroke-width:0.5;"/><path d="M464,36 L464,63 M451,44 L477,44 M464,63 L451,78 M464,63 L477,78 " fill="none" style="stroke:#181818;stroke-width:0.5;"/><text fill="#000000" font-family="sans-serif" font-size="14" lengthAdjust="spacing" textLength="86" x="421" y="92.4951">Auto Player2</text></g><!--MD5=[1d295747f9db26d69e8c64c59b57bd68]
entity Dl--><g id="elem_Dl"><ellipse cx="565" cy="28" fill="#F1F1F1" rx="8" ry="8" style="stroke:#181818;stroke-width:0.5;"/><path d="M565,36 L565,63 M552,44 L578,44 M565,63 L552,78 M565,63 L578,78 " fill="none" style="stroke:#181818;stroke-width:0.5;"/><text fill="#000000" font-family="sans-serif" font-size="14" lengthAdjust="spacing" textLength="45" x="542.5" y="92.4951">Dealer</text></g><!--MD5=[df2be38d7412eedd9e0f8590a0729dcb]
link Dl to UC2--><g id="link_Dl_UC2"><path d="M542.48,83.05 C537.14,87.75 531.19,92.23 525,95.5 C442.59,139.09 334.99,157.17 267.68,164.55 " fill="none" id="Dl-to-UC2" style="stroke:#181818;stroke-width:1.0;"/><polygon fill="#181818" points="262.5,165.11,271.8725,168.136,267.472,164.5814,271.0267,160.1809,262.5,165.11" style="stroke:#181818;stroke-width:1.0;"/></g><!--MD5=[1aa3f81a3bd80cff712043234baebedb]
link UC1 to UC2--><g id="link_UC1_UC2"><path d="M200.52,73.01 C201.24,92.81 202.52,128.35 203.31,150.33 " fill="none" id="UC1-to-UC2" style="stroke:#181818;stroke-width:1.0;"/><polygon fill="#181818" points="203.49,155.34,207.1793,146.2082,203.3187,150.3429,199.184,146.4823,203.49,155.34" style="stroke:#181818;stroke-width:1.0;"/></g><!--MD5=[594891eb4838d876d29f7ff5a36f2080]
link UC2 to UC3--><g id="link_UC2_UC3"><path d="M203.68,185.56 C203.34,200.32 202.81,223.61 202.43,239.99 " fill="none" id="UC2-to-UC3" style="stroke:#181818;stroke-width:1.0;"/><polygon fill="#181818" points="202.31,245.26,206.5146,236.3538,202.4243,240.2613,198.5167,236.1709,202.31,245.26" style="stroke:#181818;stroke-width:1.0;"/></g><!--MD5=[c2c2d51be8a732dddcb94b0c58646b8f]
link UC3 to UC4--><g id="link_UC3_UC4"><path d="M201.84,274.83 C201.68,289.33 201.42,312.28 201.23,328.91 " fill="none" id="UC3-to-UC4" style="stroke:#181818;stroke-width:1.0;"/><polygon fill="#181818" points="201.17,334.29,205.2726,325.3363,201.2271,329.2903,197.2731,325.2449,201.17,334.29" style="stroke:#181818;stroke-width:1.0;"/></g><!--MD5=[d18620d8c38caf012eac7a7810dcc6ca]
link Me to UC2--><g id="link_Me_UC2"><path d="M100.36,93.32 C127.45,113.22 160.16,137.28 181.5,152.96 " fill="none" id="Me-to-UC2" style="stroke:#181818;stroke-width:1.0;"/><polygon fill="#181818" points="185.61,155.98,180.7218,147.4299,181.5793,153.0213,175.9879,153.8789,185.61,155.98" style="stroke:#181818;stroke-width:1.0;"/></g><!--MD5=[cb7c0ac28d452d48ec045ee25d3f68bd]
link Pl1 to UC2--><g id="link_Pl1_UC2"><path d="M299.78,93.01 C275.03,112.77 245.08,136.7 225.33,152.47 " fill="none" id="Pl1-to-UC2" style="stroke:#181818;stroke-width:1.0;"/><polygon fill="#181818" points="221.03,155.9,230.5577,153.4055,224.9357,152.7783,225.5629,147.1563,221.03,155.9" style="stroke:#181818;stroke-width:1.0;"/></g><!--MD5=[d671f2e48607a537cc2ecdee1037dfeb]
link Pl2 to UC2--><g id="link_Pl2_UC2"><path d="M420.99,86.42 C415.37,89.65 409.61,92.77 404,95.5 C351.23,121.22 287.11,143.46 245.94,156.68 " fill="none" id="Pl2-to-UC2" style="stroke:#181818;stroke-width:1.0;"/><polygon fill="#181818" points="241.03,158.24,250.8213,159.3035,245.7916,156.7146,248.3806,151.6849,241.03,158.24" style="stroke:#181818;stroke-width:1.0;"/></g><!--MD5=[9d9ce561851022a5d90f371d965a8983]
@startuml Blackjack
rectangle BlackJack {
  usecase "Game Start" as UC1
  usecase "Draw Card" as UC2
  usecase "Judge" as UC3
  usecase "Game Finish" as UC4
}
actor "Manual Player" as Me
actor "Auto Player1" as Pl1
actor "Auto Player2" as Pl2
actor "Dealer" as Dl
Dl - -> UC2
UC1 - -> UC2
UC2 - -> UC3
UC3 - -> UC4
Me - -> UC2
Pl1 - -> UC2
Pl2 - -> UC2
@enduml

PlantUML version 1.2022.7(Tue Aug 23 02:01:30 JST 2022)
(GPL source distribution)
Java Runtime: OpenJDK Runtime Environment
JVM: OpenJDK 64-Bit Server VM
Default Encoding: UTF-8
Language: en
Country: null
--></g></svg>