<?xml version="1.0" encoding="UTF-8" standalone="no"?><svg xmlns="http://www.w3.org/2000/svg" xmlns:xlink="http://www.w3.org/1999/xlink" contentStyleType="text/css" height="381px" preserveAspectRatio="none" style="width:653px;height:381px;background:#FFFFFF;" version="1.1" viewBox="0 0 653 381" width="653px" zoomAndPan="magnify"><defs/><g><!--MD5=[b6dcce5e5ef3c84b0b048d11301373dd]
class Game--><g id="elem_Game"><rect codeLine="1" fill="#F1F1F1" height="162.0781" id="Game" rx="2.5" ry="2.5" style="stroke:#181818;stroke-width:0.5;" width="116" x="24.5" y="7"/><ellipse cx="58.85" cy="23" fill="#ADD1B2" rx="11" ry="11" style="stroke:#181818;stroke-width:1.0;"/><path d="M61.8188,28.6406 Q61.2406,28.9375 60.6,29.0781 Q59.9594,29.2344 59.2563,29.2344 Q56.7563,29.2344 55.4281,27.5938 Q54.1156,25.9375 54.1156,22.8125 Q54.1156,19.6875 55.4281,18.0313 Q56.7563,16.375 59.2563,16.375 Q59.9594,16.375 60.6,16.5313 Q61.2563,16.6875 61.8188,16.9844 L61.8188,19.7031 Q61.1938,19.125 60.6,18.8594 Q60.0063,18.5781 59.3813,18.5781 Q58.0375,18.5781 57.35,19.6563 Q56.6625,20.7188 56.6625,22.8125 Q56.6625,24.9063 57.35,25.9844 Q58.0375,27.0469 59.3813,27.0469 Q60.0063,27.0469 60.6,26.7813 Q61.1938,26.5 61.8188,25.9219 L61.8188,28.6406 Z " fill="#000000"/><text fill="#000000" font-family="sans-serif" font-size="14" lengthAdjust="spacing" textLength="41" x="77.15" y="27.8467">Game</text><line style="stroke:#181818;stroke-width:0.5;" x1="25.5" x2="139.5" y1="39" y2="39"/><text fill="#000000" font-family="sans-serif" font-size="14" lengthAdjust="spacing" textLength="95" x="30.5" y="55.9951">object $deck;</text><text fill="#000000" font-family="sans-serif" font-size="14" lengthAdjust="spacing" textLength="102" x="30.5" y="72.292">object $player;</text><text fill="#000000" font-family="sans-serif" font-size="14" lengthAdjust="spacing" textLength="104" x="30.5" y="88.5889">object $dealer;</text><line style="stroke:#181818;stroke-width:0.5;" x1="25.5" x2="139.5" y1="95.8906" y2="95.8906"/><text fill="#000000" font-family="sans-serif" font-size="14" lengthAdjust="spacing" textLength="41" x="30.5" y="112.8857">start()</text><text fill="#000000" font-family="sans-serif" font-size="14" lengthAdjust="spacing" textLength="63" x="30.5" y="129.1826">optionY()</text><text fill="#000000" font-family="sans-serif" font-size="14" lengthAdjust="spacing" textLength="64" x="30.5" y="145.4795">optionN()</text><text fill="#000000" font-family="sans-serif" font-size="14" lengthAdjust="spacing" textLength="49" x="30.5" y="161.7764">judge()</text></g><!--MD5=[bea5b0d46523efab5ea1c1d339f396f0]
class Message--><g id="elem_Message"><rect codeLine="10" fill="#F1F1F1" height="48" id="Message" rx="2.5" ry="2.5" style="stroke:#181818;stroke-width:0.5;" width="95" x="176" y="64"/><ellipse cx="191" cy="80" fill="#ADD1B2" rx="11" ry="11" style="stroke:#181818;stroke-width:1.0;"/><path d="M193.9688,85.6406 Q193.3906,85.9375 192.75,86.0781 Q192.1094,86.2344 191.4063,86.2344 Q188.9063,86.2344 187.5781,84.5938 Q186.2656,82.9375 186.2656,79.8125 Q186.2656,76.6875 187.5781,75.0313 Q188.9063,73.375 191.4063,73.375 Q192.1094,73.375 192.75,73.5313 Q193.4063,73.6875 193.9688,73.9844 L193.9688,76.7031 Q193.3438,76.125 192.75,75.8594 Q192.1563,75.5781 191.5313,75.5781 Q190.1875,75.5781 189.5,76.6563 Q188.8125,77.7188 188.8125,79.8125 Q188.8125,81.9063 189.5,82.9844 Q190.1875,84.0469 191.5313,84.0469 Q192.1563,84.0469 192.75,83.7813 Q193.3438,83.5 193.9688,82.9219 L193.9688,85.6406 Z " fill="#000000"/><text fill="#000000" font-family="sans-serif" font-size="14" lengthAdjust="spacing" textLength="63" x="205" y="84.8467">Message</text><line style="stroke:#181818;stroke-width:0.5;" x1="177" x2="270" y1="96" y2="96"/><line style="stroke:#181818;stroke-width:0.5;" x1="177" x2="270" y1="104" y2="104"/></g><!--MD5=[30299a58ba6b78debaaed5ddbb42f29a]
class Deck--><g id="elem_Deck"><rect codeLine="13" fill="#F1F1F1" height="113.1875" id="Deck" rx="2.5" ry="2.5" style="stroke:#181818;stroke-width:0.5;" width="94" x="306.5" y="31.5"/><ellipse cx="333.2" cy="47.5" fill="#ADD1B2" rx="11" ry="11" style="stroke:#181818;stroke-width:1.0;"/><path d="M336.1688,53.1406 Q335.5906,53.4375 334.95,53.5781 Q334.3094,53.7344 333.6063,53.7344 Q331.1063,53.7344 329.7781,52.0938 Q328.4656,50.4375 328.4656,47.3125 Q328.4656,44.1875 329.7781,42.5313 Q331.1063,40.875 333.6063,40.875 Q334.3094,40.875 334.95,41.0313 Q335.6063,41.1875 336.1688,41.4844 L336.1688,44.2031 Q335.5438,43.625 334.95,43.3594 Q334.3563,43.0781 333.7313,43.0781 Q332.3875,43.0781 331.7,44.1563 Q331.0125,45.2188 331.0125,47.3125 Q331.0125,49.4063 331.7,50.4844 Q332.3875,51.5469 333.7313,51.5469 Q334.3563,51.5469 334.95,51.2813 Q335.5438,51 336.1688,50.4219 L336.1688,53.1406 Z " fill="#000000"/><text fill="#000000" font-family="sans-serif" font-size="14" lengthAdjust="spacing" textLength="36" x="349.8" y="52.3467">Deck</text><line style="stroke:#181818;stroke-width:0.5;" x1="307.5" x2="399.5" y1="63.5" y2="63.5"/><text fill="#000000" font-family="sans-serif" font-size="14" lengthAdjust="spacing" textLength="82" x="312.5" y="80.4951">array $Deck</text><line style="stroke:#181818;stroke-width:0.5;" x1="307.5" x2="399.5" y1="87.7969" y2="87.7969"/><text fill="#000000" font-family="sans-serif" font-size="14" lengthAdjust="spacing" textLength="66" x="312.5" y="104.792">InitDeck()</text><text fill="#000000" font-family="sans-serif" font-size="14" lengthAdjust="spacing" textLength="77" x="312.5" y="121.0889">DrawCard()</text><text fill="#000000" font-family="sans-serif" font-size="14" lengthAdjust="spacing" textLength="71" x="312.5" y="137.3857">GetDeck()</text></g><!--MD5=[5e305716458bbdabbd2d7f572ed2bae2]
class Card--><g id="elem_Card"><rect codeLine="20" fill="#F1F1F1" height="96.8906" id="Card" rx="2.5" ry="2.5" style="stroke:#181818;stroke-width:0.5;" width="151" x="7" y="253.5"/><ellipse cx="62.25" cy="269.5" fill="#ADD1B2" rx="11" ry="11" style="stroke:#181818;stroke-width:1.0;"/><path d="M65.2188,275.1406 Q64.6406,275.4375 64,275.5781 Q63.3594,275.7344 62.6563,275.7344 Q60.1563,275.7344 58.8281,274.0938 Q57.5156,272.4375 57.5156,269.3125 Q57.5156,266.1875 58.8281,264.5313 Q60.1563,262.875 62.6563,262.875 Q63.3594,262.875 64,263.0313 Q64.6563,263.1875 65.2188,263.4844 L65.2188,266.2031 Q64.5938,265.625 64,265.3594 Q63.4063,265.0781 62.7813,265.0781 Q61.4375,265.0781 60.75,266.1563 Q60.0625,267.2188 60.0625,269.3125 Q60.0625,271.4063 60.75,272.4844 Q61.4375,273.5469 62.7813,273.5469 Q63.4063,273.5469 64,273.2813 Q64.5938,273 65.2188,272.4219 L65.2188,275.1406 Z " fill="#000000"/><text fill="#000000" font-family="sans-serif" font-size="14" lengthAdjust="spacing" textLength="32" x="82.75" y="274.3467">Card</text><line style="stroke:#181818;stroke-width:0.5;" x1="8" x2="157" y1="285.5" y2="285.5"/><text fill="#000000" font-family="sans-serif" font-size="14" lengthAdjust="spacing" textLength="83" x="13" y="302.4951">const SUITS</text><text fill="#000000" font-family="sans-serif" font-size="14" lengthAdjust="spacing" textLength="139" x="13" y="318.792">const CARD_SCORE</text><line style="stroke:#181818;stroke-width:0.5;" x1="8" x2="157" y1="326.0938" y2="326.0938"/><text fill="#000000" font-family="sans-serif" font-size="14" lengthAdjust="spacing" textLength="76" x="13" y="343.0889">NewDeck()</text></g><!--MD5=[2cb47ba637a0d19583e6199456f6ad0b]
class Player--><g id="elem_Player"><rect codeLine="25" fill="#F1F1F1" height="129.4844" id="Player" rx="2.5" ry="2.5" style="stroke:#181818;stroke-width:0.5;" width="209" x="193" y="237.5"/><ellipse cx="272.75" cy="253.5" fill="#ADD1B2" rx="11" ry="11" style="stroke:#181818;stroke-width:1.0;"/><path d="M275.7188,259.1406 Q275.1406,259.4375 274.5,259.5781 Q273.8594,259.7344 273.1563,259.7344 Q270.6563,259.7344 269.3281,258.0938 Q268.0156,256.4375 268.0156,253.3125 Q268.0156,250.1875 269.3281,248.5313 Q270.6563,246.875 273.1563,246.875 Q273.8594,246.875 274.5,247.0313 Q275.1563,247.1875 275.7188,247.4844 L275.7188,250.2031 Q275.0938,249.625 274.5,249.3594 Q273.9063,249.0781 273.2813,249.0781 Q271.9375,249.0781 271.25,250.1563 Q270.5625,251.2188 270.5625,253.3125 Q270.5625,255.4063 271.25,256.4844 Q271.9375,257.5469 273.2813,257.5469 Q273.9063,257.5469 274.5,257.2813 Q275.0938,257 275.7188,256.4219 L275.7188,259.1406 Z " fill="#000000"/><text fill="#000000" font-family="sans-serif" font-size="14" lengthAdjust="spacing" textLength="41" x="293.25" y="258.3467">Player</text><line style="stroke:#181818;stroke-width:0.5;" x1="194" x2="401" y1="269.5" y2="269.5"/><text fill="#000000" font-family="sans-serif" font-size="14" lengthAdjust="spacing" textLength="123" x="199" y="286.4951">array $playerHand</text><text fill="#000000" font-family="sans-serif" font-size="14" lengthAdjust="spacing" textLength="111" x="199" y="302.792">int $playerScore</text><line style="stroke:#181818;stroke-width:0.5;" x1="194" x2="401" y1="310.0938" y2="310.0938"/><text fill="#000000" font-family="sans-serif" font-size="14" lengthAdjust="spacing" textLength="197" x="199" y="327.0889">FirstDrawCards(Deck $deck)</text><text fill="#000000" font-family="sans-serif" font-size="14" lengthAdjust="spacing" textLength="160" x="199" y="343.3857">DrawCard(Deck $deck)</text><text fill="#000000" font-family="sans-serif" font-size="14" lengthAdjust="spacing" textLength="75" x="199" y="359.6826">GetScore()</text></g><!--MD5=[489d8ee0a19148a265eb284aebff018b]
class Dealer--><g id="elem_Dealer"><rect codeLine="33" fill="#F1F1F1" height="145.7813" id="Dealer" rx="2.5" ry="2.5" style="stroke:#181818;stroke-width:0.5;" width="209" x="437" y="229"/><ellipse cx="514.75" cy="245" fill="#ADD1B2" rx="11" ry="11" style="stroke:#181818;stroke-width:1.0;"/><path d="M517.7188,250.6406 Q517.1406,250.9375 516.5,251.0781 Q515.8594,251.2344 515.1563,251.2344 Q512.6563,251.2344 511.3281,249.5938 Q510.0156,247.9375 510.0156,244.8125 Q510.0156,241.6875 511.3281,240.0313 Q512.6563,238.375 515.1563,238.375 Q515.8594,238.375 516.5,238.5313 Q517.1563,238.6875 517.7188,238.9844 L517.7188,241.7031 Q517.0938,241.125 516.5,240.8594 Q515.9063,240.5781 515.2813,240.5781 Q513.9375,240.5781 513.25,241.6563 Q512.5625,242.7188 512.5625,244.8125 Q512.5625,246.9063 513.25,247.9844 Q513.9375,249.0469 515.2813,249.0469 Q515.9063,249.0469 516.5,248.7813 Q517.0938,248.5 517.7188,247.9219 L517.7188,250.6406 Z " fill="#000000"/><text fill="#000000" font-family="sans-serif" font-size="14" lengthAdjust="spacing" textLength="45" x="535.25" y="249.8467">Dealer</text><line style="stroke:#181818;stroke-width:0.5;" x1="438" x2="645" y1="261" y2="261"/><text fill="#000000" font-family="sans-serif" font-size="14" lengthAdjust="spacing" textLength="123" x="443" y="277.9951">array $playerHand</text><text fill="#000000" font-family="sans-serif" font-size="14" lengthAdjust="spacing" textLength="113" x="443" y="294.292">int $dealerScore</text><line style="stroke:#181818;stroke-width:0.5;" x1="438" x2="645" y1="301.5938" y2="301.5938"/><text fill="#000000" font-family="sans-serif" font-size="14" lengthAdjust="spacing" textLength="197" x="443" y="318.5889">FirstDrawCards(Deck $deck)</text><text fill="#000000" font-family="sans-serif" font-size="14" lengthAdjust="spacing" textLength="160" x="443" y="334.8857">DrawCard(Deck $deck)</text><text fill="#000000" font-family="sans-serif" font-size="14" lengthAdjust="spacing" textLength="75" x="443" y="351.1826">GetScore()</text><text fill="#000000" font-family="sans-serif" font-size="14" lengthAdjust="spacing" textLength="71" x="443" y="367.4795">GetHand()</text></g><!--MD5=[050c8e5121d16f90d748deab539b6ece]
@startuml
class Game {
  object $deck;
  object $player;
  object $dealer;
  start()
  optionY()
  optionN()
  judge()
}
class Message {

}
class Deck {
  array $Deck
  InitDeck()
  DrawCard()
  GetDeck()

}
class Card {
  const SUITS
  const CARD_SCORE
  NewDeck()
}
class Player {
  array $playerHand
  int $playerScore
  FirstDrawCards(Deck $deck)
  DrawCard(Deck $deck)
  GetScore()

}
class Dealer {
  array $playerHand
  int $dealerScore
  FirstDrawCards(Deck $deck)
  DrawCard(Deck $deck)
  GetScore()
  GetHand()

}
@enduml

PlantUML version 1.2022.7(Tue Aug 23 02:01:30 JST 2022)
(GPL source distribution)
Java Runtime: OpenJDK Runtime Environment
JVM: OpenJDK 64-Bit Server VM
Default Encoding: UTF-8
Language: en
Country: null
--></g></svg>